<svg width="1366" height="600" xmlns="http://www.w3.org/2000/svg"><g><path d="M-114.10020421957597,-103.71476093074307L-132.96014574123546,219.2643195670098L-23.1891084369272,110.86192021146417Z" fill="#db3e38" stroke="#db3e38"></path><path d="M-114.10020421957597,-103.71476093074307L-23.1891084369272,110.86192021146417L106.35771616594866,71.95760105503723Z" fill="#de162e" stroke="#de162e"></path><path d="M-114.10020421957597,-103.71476093074307L106.35771616594866,71.95760105503723L138.27915246598423,-124.915382261388Z" fill="#de0d18" stroke="#de0d18"></path><path d="M138.27915246598423,-124.915382261388L106.35771616594866,71.95760105503723L221.26973090926185,-65.77234979020432Z" fill="#e72f2c" stroke="#e72f2c"></path><path d="M138.27915246598423,-124.915382261388L221.26973090926185,-65.77234979020432L377.1085903653875,-45.70049046073109Z" fill="#ec4a3c" stroke="#ec4a3c"></path><path d="M138.27915246598423,-124.915382261388L377.1085903653875,-45.70049046073109L590.3610174986534,-130.43522417079657Z" fill="#ed6156" stroke="#ed6156"></path><path d="M138.27915246598423,-124.915382261388L590.3610174986534,-130.43522417079657L859.6424638433382,-136.14974660333246Z" fill="#ed7978" stroke="#ed7978"></path><path d="M221.26973090926185,-65.77234979020432L106.35771616594866,71.95760105503723L183.47819437738508,120.99167128792033Z" fill="#ed5756" stroke="#ed5756"></path><path d="M221.26973090926185,-65.77234979020432L183.47819437738508,120.99167128792033L352.4554610112682,92.79286412289366Z" fill="#f47569" stroke="#f47569"></path><path d="M221.26973090926185,-65.77234979020432L352.4554610112682,92.79286412289366L377.1085903653875,-45.70049046073109Z" fill="#f2595b" stroke="#f2595b"></path><path d="M377.1085903653875,-45.70049046073109L352.4554610112682,92.79286412289366L582.4206663947552,136.4232452888973Z" fill="#f79d95" stroke="#f79d95"></path><path d="M377.1085903653875,-45.70049046073109L582.4206663947552,136.4232452888973L590.3610174986534,-130.43522417079657Z" fill="#f37782" stroke="#f37782"></path><path d="M590.3610174986534,-130.43522417079657L582.4206663947552,136.4232452888973L697.8033818816766,-80.99728907924145Z" fill="#e4757f" stroke="#e4757f"></path><path d="M590.3610174986534,-130.43522417079657L697.8033818816766,-80.99728907924145L859.6424638433382,-136.14974660333246Z" fill="#ce6c74" stroke="#ce6c74"></path><path d="M697.8033818816766,-80.99728907924145L582.4206663947552,136.4232452888973L726.9096271321177,132.50882050255314Z" fill="#e1a4a8" stroke="#e1a4a8"></path><path d="M697.8033818816766,-80.99728907924145L726.9096271321177,132.50882050255314L830.8093132614158,40.91105852276087Z" fill="#d08294" stroke="#d08294"></path><path d="M697.8033818816766,-80.99728907924145L830.8093132614158,40.91105852276087L859.6424638433382,-136.14974660333246Z" fill="#c36570" stroke="#c36570"></path><path d="M859.6424638433382,-136.14974660333246L830.8093132614158,40.91105852276087L1095.7643076521344,-39.03536483179778Z" fill="#a35266" stroke="#a35266"></path><path d="M859.6424638433382,-136.14974660333246L1095.7643076521344,-39.03536483179778L1355.8547646761872,-142.08345327759162Z" fill="#733757" stroke="#733757"></path><path d="M859.6424638433382,-136.14974660333246L1355.8547646761872,-142.08345327759162L1455.2076776255853,-144.48680258356035Z" fill="#71254d" stroke="#71254d"></path><path d="M1095.7643076521344,-39.03536483179778L830.8093132614158,40.91105852276087L979.0397699852474,111.32290826179087Z" fill="#9d6b88" stroke="#9d6b88"></path><path d="M1095.7643076521344,-39.03536483179778L979.0397699852474,111.32290826179087L1152.8481194516644,117.02339530922472Z" fill="#836f8c" stroke="#836f8c"></path><path d="M1095.7643076521344,-39.03536483179778L1152.8481194516644,117.02339530922472L1232.5506804394536,-21.77667008014396Z" fill="#7a3e6f" stroke="#7a3e6f"></path><path d="M1095.7643076521344,-39.03536483179778L1232.5506804394536,-21.77667008014396L1355.8547646761872,-142.08345327759162Z" fill="#75244d" stroke="#75244d"></path><path d="M1232.5506804394536,-21.77667008014396L1152.8481194516644,117.02339530922472L1360.865169663448,52.18182898359373Z" fill="#7c4976" stroke="#7c4976"></path><path d="M1232.5506804394536,-21.77667008014396L1360.865169663448,52.18182898359373L1355.8547646761872,-142.08345327759162Z" fill="#771646" stroke="#771646"></path><path d="M1355.8547646761872,-142.08345327759162L1360.865169663448,52.18182898359373L1455.2076776255853,-144.48680258356035Z" fill="#740b3f" stroke="#740b3f"></path><path d="M1455.2076776255853,-144.48680258356035L1360.865169663448,52.18182898359373L1509.0235964860767,88.91201043501496Z" fill="#79034d" stroke="#79034d"></path><path d="M-23.1891084369272,110.86192021146417L-132.96014574123546,219.2643195670098L106.16601761430502,211.6005318122916Z" fill="#e37174" stroke="#e37174"></path><path d="M-23.1891084369272,110.86192021146417L106.16601761430502,211.6005318122916L106.35771616594866,71.95760105503723Z" fill="#ea796e" stroke="#ea796e"></path><path d="M106.35771616594866,71.95760105503723L106.16601761430502,211.6005318122916L183.47819437738508,120.99167128792033Z" fill="#ef8e7b" stroke="#ef8e7b"></path><path d="M183.47819437738508,120.99167128792033L106.16601761430502,211.6005318122916L275.67695517092943,204.31351843522862Z" fill="#f3aa98" stroke="#f3aa98"></path><path d="M183.47819437738508,120.99167128792033L275.67695517092943,204.31351843522862L352.4554610112682,92.79286412289366Z" fill="#fab996" stroke="#fab996"></path><path d="M352.4554610112682,92.79286412289366L275.67695517092943,204.31351843522862L386.47969867568463,187.9346496798098Z" fill="#fac9ae" stroke="#fac9ae"></path><path d="M352.4554610112682,92.79286412289366L386.47969867568463,187.9346496798098L500.45179415494204,205.64087134087458Z" fill="#fbd4be" stroke="#fbd4be"></path><path d="M352.4554610112682,92.79286412289366L500.45179415494204,205.64087134087458L582.4206663947552,136.4232452888973Z" fill="#fbdac5" stroke="#fbdac5"></path><path d="M582.4206663947552,136.4232452888973L500.45179415494204,205.64087134087458L690.4580646194518,355.2451063366607Z" fill="#f3f5f6" stroke="#f3f5f6"></path><path d="M582.4206663947552,136.4232452888973L690.4580646194518,355.2451063366607L749.240696451161,230.80836167326197Z" fill="#e3f0f5" stroke="#e3f0f5"></path><path d="M582.4206663947552,136.4232452888973L749.240696451161,230.80836167326197L726.9096271321177,132.50882050255314Z" fill="#e1ddd6" stroke="#e1ddd6"></path><path d="M726.9096271321177,132.50882050255314L749.240696451161,230.80836167326197L830.8093132614158,40.91105852276087Z" fill="#d2cdc5" stroke="#d2cdc5"></path><path d="M830.8093132614158,40.91105852276087L749.240696451161,230.80836167326197L897.2119005396962,265.40722196456045Z" fill="#c7d3d5" stroke="#c7d3d5"></path><path d="M830.8093132614158,40.91105852276087L897.2119005396962,265.40722196456045L979.0397699852474,111.32290826179087Z" fill="#b3bdbe" stroke="#b3bdbe"></path><path d="M979.0397699852474,111.32290826179087L897.2119005396962,265.40722196456045L1085.7902420382015,277.0346147730015Z" fill="#9dc3d8" stroke="#9dc3d8"></path><path d="M979.0397699852474,111.32290826179087L1085.7902420382015,277.0346147730015L1152.8481194516644,117.02339530922472Z" fill="#87aabb" stroke="#87aabb"></path><path d="M1152.8481194516644,117.02339530922472L1085.7902420382015,277.0346147730015L1184.2630099365488,243.9518975187093Z" fill="#80aac8" stroke="#80aac8"></path><path d="M1152.8481194516644,117.02339530922472L1184.2630099365488,243.9518975187093L1297.9597676778212,194.90072902292013Z" fill="#8099b7" stroke="#8099b7"></path><path d="M1152.8481194516644,117.02339530922472L1297.9597676778212,194.90072902292013L1360.865169663448,52.18182898359373Z" fill="#808097" stroke="#808097"></path><path d="M1360.865169663448,52.18182898359373L1297.9597676778212,194.90072902292013L1509.0235964860767,88.91201043501496Z" fill="#7f6789" stroke="#7f6789"></path><path d="M1509.0235964860767,88.91201043501496L1297.9597676778212,194.90072902292013L1476.7423248919658,298.7752970517613Z" fill="#807aa9" stroke="#807aa9"></path><path d="M1509.0235964860767,88.91201043501496L1476.7423248919658,298.7752970517613L1501.1642917222343,340.03082694718614Z" fill="#7f80b6" stroke="#7f80b6"></path><path d="M1509.0235964860767,88.91201043501496L1501.1642917222343,340.03082694718614L1577.5253736739978,524.2687571118586Z" fill="#6679b3" stroke="#6679b3"></path><path d="M-132.96014574123546,219.2643195670098L-119.47853041114286,505.35463810898364L-38.58938670484349,398.9872026350349Z" fill="#ac707d" stroke="#ac707d"></path><path d="M-132.96014574123546,219.2643195670098L-38.58938670484349,398.9872026350349L106.16601761430502,211.6005318122916Z" fill="#d77d8c" stroke="#d77d8c"></path><path d="M106.16601761430502,211.6005318122916L-38.58938670484349,398.9872026350349L47.40171213867143,392.98710680101067Z" fill="#c88397" stroke="#c88397"></path><path d="M106.16601761430502,211.6005318122916L47.40171213867143,392.98710680101067L259.28585200570524,380.48220867291093Z" fill="#d1a2a8" stroke="#d1a2a8"></path><path d="M106.16601761430502,211.6005318122916L259.28585200570524,380.48220867291093L275.67695517092943,204.31351843522862Z" fill="#edbeb6" stroke="#edbeb6"></path><path d="M275.67695517092943,204.31351843522862L259.28585200570524,380.48220867291093L386.47969867568463,187.9346496798098Z" fill="#f4d6c8" stroke="#f4d6c8"></path><path d="M386.47969867568463,187.9346496798098L259.28585200570524,380.48220867291093L342.0280515565537,461.16037387866527Z" fill="#d7d2cd" stroke="#d7d2cd"></path><path d="M386.47969867568463,187.9346496798098L342.0280515565537,461.16037387866527L522.5726170651615,418.6321938014589Z" fill="#d4dee0" stroke="#d4dee0"></path><path d="M386.47969867568463,187.9346496798098L522.5726170651615,418.6321938014589L500.45179415494204,205.64087134087458Z" fill="#f0edeb" stroke="#f0edeb"></path><path d="M500.45179415494204,205.64087134087458L522.5726170651615,418.6321938014589L690.4580646194518,355.2451063366607Z" fill="#daf2fa" stroke="#daf2fa"></path><path d="M749.240696451161,230.80836167326197L690.4580646194518,355.2451063366607L897.2119005396962,265.40722196456045Z" fill="#c1e2f1" stroke="#c1e2f1"></path><path d="M897.2119005396962,265.40722196456045L690.4580646194518,355.2451063366607L912.7983604441397,415.2096631890163Z" fill="#a2d7ee" stroke="#a2d7ee"></path><path d="M897.2119005396962,265.40722196456045L912.7983604441397,415.2096631890163L1033.7892906670459,422.69261121284217Z" fill="#7bc2e2" stroke="#7bc2e2"></path><path d="M897.2119005396962,265.40722196456045L1033.7892906670459,422.69261121284217L1085.7902420382015,277.0346147730015Z" fill="#7dbfdf" stroke="#7dbfdf"></path><path d="M1085.7902420382015,277.0346147730015L1033.7892906670459,422.69261121284217L1146.9785038707778,429.4453672855161Z" fill="#51a8d5" stroke="#51a8d5"></path><path d="M1085.7902420382015,277.0346147730015L1146.9785038707778,429.4453672855161L1184.2630099365488,243.9518975187093Z" fill="#66abd4" stroke="#66abd4"></path><path d="M1184.2630099365488,243.9518975187093L1146.9785038707778,429.4453672855161L1345.304005742073,451.5630366653204Z" fill="#4f94ca" stroke="#4f94ca"></path><path d="M1184.2630099365488,243.9518975187093L1345.304005742073,451.5630366653204L1297.9597676778212,194.90072902292013Z" fill="#6d98c8" stroke="#6d98c8"></path><path d="M1297.9597676778212,194.90072902292013L1345.304005742073,451.5630366653204L1476.7423248919658,298.7752970517613Z" fill="#6687c0" stroke="#6687c0"></path><path d="M1476.7423248919658,298.7752970517613L1345.304005742073,451.5630366653204L1501.1642917222343,340.03082694718614Z" fill="#5577ba" stroke="#5577ba"></path><path d="M-38.58938670484349,398.9872026350349L-119.47853041114286,505.35463810898364L81.98176814243197,503.74049935722724Z" fill="#7b4877" stroke="#7b4877"></path><path d="M-38.58938670484349,398.9872026350349L81.98176814243197,503.74049935722724L47.40171213867143,392.98710680101067Z" fill="#956188" stroke="#956188"></path><path d="M47.40171213867143,392.98710680101067L81.98176814243197,503.74049935722724L259.28585200570524,380.48220867291093Z" fill="#a0819a" stroke="#a0819a"></path><path d="M259.28585200570524,380.48220867291093L81.98176814243197,503.74049935722724L258.4022991731763,516.7916005337611Z" fill="#8e86a0" stroke="#8e86a0"></path><path d="M259.28585200570524,380.48220867291093L258.4022991731763,516.7916005337611L342.0280515565537,461.16037387866527Z" fill="#9ba4b2" stroke="#9ba4b2"></path><path d="M342.0280515565537,461.16037387866527L258.4022991731763,516.7916005337611L342.6573624671437,534.8856108798645Z" fill="#7e92af" stroke="#7e92af"></path><path d="M342.0280515565537,461.16037387866527L342.6573624671437,534.8856108798645L522.5726170651615,418.6321938014589Z" fill="#91adc7" stroke="#91adc7"></path><path d="M522.5726170651615,418.6321938014589L342.6573624671437,534.8856108798645L537.5923824054189,587.6232324284501Z" fill="#7ba5cd" stroke="#7ba5cd"></path><path d="M522.5726170651615,418.6321938014589L537.5923824054189,587.6232324284501L682.7550330618396,524.0136333927512Z" fill="#75b0de" stroke="#75b0de"></path><path d="M522.5726170651615,418.6321938014589L682.7550330618396,524.0136333927512L690.4580646194518,355.2451063366607Z" fill="#99cbea" stroke="#99cbea"></path><path d="M690.4580646194518,355.2451063366607L682.7550330618396,524.0136333927512L912.7983604441397,415.2096631890163Z" fill="#81c0e4" stroke="#81c0e4"></path><path d="M912.7983604441397,415.2096631890163L682.7550330618396,524.0136333927512L832.8368386044167,620.7747276220471Z" fill="#4b97d1" stroke="#4b97d1"></path><path d="M912.7983604441397,415.2096631890163L832.8368386044167,620.7747276220471L1087.4006764730439,529.5426922664046Z" fill="#2982c6" stroke="#2982c6"></path><path d="M912.7983604441397,415.2096631890163L1087.4006764730439,529.5426922664046L1033.7892906670459,422.69261121284217Z" fill="#3793cd" stroke="#3793cd"></path><path d="M1033.7892906670459,422.69261121284217L1087.4006764730439,529.5426922664046L1146.9785038707778,429.4453672855161Z" fill="#2185c5" stroke="#2185c5"></path><path d="M1146.9785038707778,429.4453672855161L1087.4006764730439,529.5426922664046L1187.1065408689901,523.4758399100974Z" fill="#0a6fbb" stroke="#0a6fbb"></path><path d="M1146.9785038707778,429.4453672855161L1187.1065408689901,523.4758399100974L1345.304005742073,451.5630366653204Z" fill="#196db8" stroke="#196db8"></path><path d="M1345.304005742073,451.5630366653204L1187.1065408689901,523.4758399100974L1376.6608726838604,547.3384138126858Z" fill="#0250ab" stroke="#0250ab"></path><path d="M1345.304005742073,451.5630366653204L1376.6608726838604,547.3384138126858L1577.5253736739978,524.2687571118586Z" fill="#023ca0" stroke="#023ca0"></path><path d="M1345.304005742073,451.5630366653204L1577.5253736739978,524.2687571118586L1501.1642917222343,340.03082694718614Z" fill="#2a55a9" stroke="#2a55a9"></path><path d="M-119.47853041114286,505.35463810898364L-104.86338051501662,720.7527889683843L81.98176814243197,503.74049935722724Z" fill="#621b5f" stroke="#621b5f"></path><path d="M81.98176814243197,503.74049935722724L-104.86338051501662,720.7527889683843L48.84246906964108,768.873046496883Z" fill="#660358" stroke="#660358"></path><path d="M81.98176814243197,503.74049935722724L48.84246906964108,768.873046496883L205.5062307533808,784.6668384573422Z" fill="#6e2267" stroke="#6e2267"></path><path d="M81.98176814243197,503.74049935722724L205.5062307533808,784.6668384573422L258.4022991731763,516.7916005337611Z" fill="#734883" stroke="#734883"></path><path d="M258.4022991731763,516.7916005337611L205.5062307533808,784.6668384573422L363.99188448442146,692.5337994750589Z" fill="#7a5388" stroke="#7a5388"></path><path d="M258.4022991731763,516.7916005337611L363.99188448442146,692.5337994750589L342.6573624671437,534.8856108798645Z" fill="#7b73a2" stroke="#7b73a2"></path><path d="M342.6573624671437,534.8856108798645L363.99188448442146,692.5337994750589L537.5923824054189,587.6232324284501Z" fill="#7b77b1" stroke="#7b77b1"></path><path d="M537.5923824054189,587.6232324284501L363.99188448442146,692.5337994750589L584.4796173810028,689.6894662594423Z" fill="#7b74b9" stroke="#7b74b9"></path><path d="M537.5923824054189,587.6232324284501L584.4796173810028,689.6894662594423L682.7550330618396,524.0136333927512Z" fill="#7288cc" stroke="#7288cc"></path><path d="M682.7550330618396,524.0136333927512L584.4796173810028,689.6894662594423L783.0007690470666,657.5927016651258Z" fill="#6277c3" stroke="#6277c3"></path><path d="M682.7550330618396,524.0136333927512L783.0007690470666,657.5927016651258L832.8368386044167,620.7747276220471Z" fill="#5379c4" stroke="#5379c4"></path><path d="M832.8368386044167,620.7747276220471L783.0007690470666,657.5927016651258L905.6509436736815,781.984642718453Z" fill="#4460af" stroke="#4460af"></path><path d="M832.8368386044167,620.7747276220471L905.6509436736815,781.984642718453L988.4342564386316,715.7729103020392Z" fill="#3255a6" stroke="#3255a6"></path><path d="M832.8368386044167,620.7747276220471L988.4342564386316,715.7729103020392L1087.4006764730439,529.5426922664046Z" fill="#2354b1" stroke="#2354b1"></path><path d="M1087.4006764730439,529.5426922664046L988.4342564386316,715.7729103020392L1181.1737764975987,695.7106179557741Z" fill="#053aa2" stroke="#053aa2"></path><path d="M1087.4006764730439,529.5426922664046L1181.1737764975987,695.7106179557741L1187.1065408689901,523.4758399100974Z" fill="#0048a9" stroke="#0048a9"></path><path d="M1187.1065408689901,523.4758399100974L1181.1737764975987,695.7106179557741L1376.6608726838604,547.3384138126858Z" fill="#0037a0" stroke="#0037a0"></path><path d="M1376.6608726838604,547.3384138126858L1181.1737764975987,695.7106179557741L1347.1254829969257,751.4189608022571Z" fill="#00198d" stroke="#00198d"></path><path d="M1376.6608726838604,547.3384138126858L1347.1254829969257,751.4189608022571L1572.3638138873503,761.6031749988906Z" fill="#00057e" stroke="#00057e"></path><path d="M1376.6608726838604,547.3384138126858L1572.3638138873503,761.6031749988906L1577.5253736739978,524.2687571118586Z" fill="#000d86" stroke="#000d86"></path><path d="M205.5062307533808,784.6668384573422L905.6509436736815,781.984642718453L584.4796173810028,689.6894662594423Z" fill="#787ab1" stroke="#787ab1"></path><path d="M205.5062307533808,784.6668384573422L584.4796173810028,689.6894662594423L363.99188448442146,692.5337994750589Z" fill="#7b6395" stroke="#7b6395"></path><path d="M584.4796173810028,689.6894662594423L905.6509436736815,781.984642718453L783.0007690470666,657.5927016651258Z" fill="#5568b0" stroke="#5568b0"></path><path d="M905.6509436736815,781.984642718453L1572.3638138873503,761.6031749988906L1347.1254829969257,751.4189608022571Z" fill="#001d7c" stroke="#001d7c"></path><path d="M905.6509436736815,781.984642718453L1347.1254829969257,751.4189608022571L1181.1737764975987,695.7106179557741Z" fill="#00318b" stroke="#00318b"></path><path d="M905.6509436736815,781.984642718453L1181.1737764975987,695.7106179557741L988.4342564386316,715.7729103020392Z" fill="#144398" stroke="#144398"></path></g></svg>