<svg width="1366" height="600" xmlns="http://www.w3.org/2000/svg"><g><path d="M-68.30034546786919,-141.04149258928373L-120.11277140118182,368.34080463275313L-95.74942596722394,129.10053194500506Z" fill="#f8bc68" stroke="#f8bc68"></path><path d="M-68.30034546786919,-141.04149258928373L-95.74942596722394,129.10053194500506L21.970774785149843,19.12686762167141Z" fill="#f8af3e" stroke="#f8af3e"></path><path d="M-68.30034546786919,-141.04149258928373L21.970774785149843,19.12686762167141L69.35347867431119,-43.3325803023763Z" fill="#f8ab2f" stroke="#f8ab2f"></path><path d="M-68.30034546786919,-141.04149258928373L69.35347867431119,-43.3325803023763L226.56502539291978,-113.26662624953315Z" fill="#f9ab2f" stroke="#f9ab2f"></path><path d="M-68.30034546786919,-141.04149258928373L226.56502539291978,-113.26662624953315L394.2501372145489,-111.49652045220137Z" fill="#f9b145" stroke="#f9b145"></path><path d="M-68.30034546786919,-141.04149258928373L394.2501372145489,-111.49652045220137L518.8063087477349,-114.20059261843562Z" fill="#faba59" stroke="#faba59"></path><path d="M-68.30034546786919,-141.04149258928373L518.8063087477349,-114.20059261843562L1257.076444630511,-112.80215144855902Z" fill="#efbd75" stroke="#efbd75"></path><path d="M69.35347867431119,-43.3325803023763L21.970774785149843,19.12686762167141L300.9150378569029,97.12271147640422Z" fill="#f9c26c" stroke="#f9c26c"></path><path d="M69.35347867431119,-43.3325803023763L300.9150378569029,97.12271147640422L226.56502539291978,-113.26662624953315Z" fill="#fac265" stroke="#fac265"></path><path d="M226.56502539291978,-113.26662624953315L300.9150378569029,97.12271147640422L394.2501372145489,-111.49652045220137Z" fill="#fac971" stroke="#fac971"></path><path d="M394.2501372145489,-111.49652045220137L300.9150378569029,97.12271147640422L373.8349876157008,107.39041006891057Z" fill="#fbd89c" stroke="#fbd89c"></path><path d="M394.2501372145489,-111.49652045220137L373.8349876157008,107.39041006891057L570.7964761508629,22.483280366286635Z" fill="#fbdda2" stroke="#fbdda2"></path><path d="M394.2501372145489,-111.49652045220137L570.7964761508629,22.483280366286635L518.8063087477349,-114.20059261843562Z" fill="#f7ce81" stroke="#f7ce81"></path><path d="M518.8063087477349,-114.20059261843562L570.7964761508629,22.483280366286635L664.1254231473431,-59.74782878300175Z" fill="#eec684" stroke="#eec684"></path><path d="M518.8063087477349,-114.20059261843562L664.1254231473431,-59.74782878300175L1068.5639629047364,-75.54473752854392Z" fill="#ddae6c" stroke="#ddae6c"></path><path d="M518.8063087477349,-114.20059261843562L1068.5639629047364,-75.54473752854392L1257.076444630511,-112.80215144855902Z" fill="#c89460" stroke="#c89460"></path><path d="M664.1254231473431,-59.74782878300175L570.7964761508629,22.483280366286635L770.1982150529511,71.21860741637647Z" fill="#e5c69b" stroke="#e5c69b"></path><path d="M664.1254231473431,-59.74782878300175L770.1982150529511,71.21860741637647L819.1956488904543,-28.611054092179984Z" fill="#ddba8e" stroke="#ddba8e"></path><path d="M664.1254231473431,-59.74782878300175L819.1956488904543,-28.611054092179984L1068.5639629047364,-75.54473752854392Z" fill="#d2a773" stroke="#d2a773"></path><path d="M819.1956488904543,-28.611054092179984L770.1982150529511,71.21860741637647L866.2037980440073,67.08985013421625Z" fill="#d6b89e" stroke="#d6b89e"></path><path d="M819.1956488904543,-28.611054092179984L866.2037980440073,67.08985013421625L1068.5639629047364,-75.54473752854392Z" fill="#cba582" stroke="#cba582"></path><path d="M1068.5639629047364,-75.54473752854392L866.2037980440073,67.08985013421625L1071.8987864651717,27.904021537397057Z" fill="#c39f86" stroke="#c39f86"></path><path d="M1068.5639629047364,-75.54473752854392L1071.8987864651717,27.904021537397057L1259.4089203630574,18.02008683560416Z" fill="#b58d77" stroke="#b58d77"></path><path d="M1068.5639629047364,-75.54473752854392L1259.4089203630574,18.02008683560416L1257.076444630511,-112.80215144855902Z" fill="#af7f5e" stroke="#af7f5e"></path><path d="M1257.076444630511,-112.80215144855902L1259.4089203630574,18.02008683560416L1405.7311240956187,-70.36057476187125Z" fill="#a37259" stroke="#a37259"></path><path d="M1405.7311240956187,-70.36057476187125L1259.4089203630574,18.02008683560416L1377.775801308453,21.112401767168194Z" fill="#9f746a" stroke="#9f746a"></path><path d="M1405.7311240956187,-70.36057476187125L1377.775801308453,21.112401767168194L1525.5367570510134,-33.52946774568409Z" fill="#96685d" stroke="#96685d"></path><path d="M1525.5367570510134,-33.52946774568409L1377.775801308453,21.112401767168194L1485.3987535322085,107.27753437124193Z" fill="#936e76" stroke="#936e76"></path><path d="M1525.5367570510134,-33.52946774568409L1485.3987535322085,107.27753437124193L1545.056603574194,236.73222998157144Z" fill="#8d7294" stroke="#8d7294"></path><path d="M-95.74942596722394,129.10053194500506L-120.11277140118182,368.34080463275313L-57.64081547735259,216.8016753718257Z" fill="#f1c18b" stroke="#f1c18b"></path><path d="M-95.74942596722394,129.10053194500506L-57.64081547735259,216.8016753718257L21.970774785149843,19.12686762167141Z" fill="#f8c174" stroke="#f8c174"></path><path d="M21.970774785149843,19.12686762167141L-57.64081547735259,216.8016753718257L124.51354932272807,226.59692663699389Z" fill="#f8cd91" stroke="#f8cd91"></path><path d="M21.970774785149843,19.12686762167141L124.51354932272807,226.59692663699389L300.9150378569029,97.12271147640422Z" fill="#f9d297" stroke="#f9d297"></path><path d="M300.9150378569029,97.12271147640422L124.51354932272807,226.59692663699389L268.8745403243229,197.18567448668182Z" fill="#fae3c2" stroke="#fae3c2"></path><path d="M300.9150378569029,97.12271147640422L268.8745403243229,197.18567448668182L373.8349876157008,107.39041006891057Z" fill="#fae4c1" stroke="#fae4c1"></path><path d="M373.8349876157008,107.39041006891057L268.8745403243229,197.18567448668182L408.75090412795544,232.14697762858123Z" fill="#fbefdd" stroke="#fbefdd"></path><path d="M373.8349876157008,107.39041006891057L408.75090412795544,232.14697762858123L570.7964761508629,22.483280366286635Z" fill="#fbefd7" stroke="#fbefd7"></path><path d="M570.7964761508629,22.483280366286635L408.75090412795544,232.14697762858123L598.2907414529473,273.72030527796596Z" fill="#f4f0ed" stroke="#f4f0ed"></path><path d="M570.7964761508629,22.483280366286635L598.2907414529473,273.72030527796596L713.2662066980265,188.61855619354174Z" fill="#e9e1e0" stroke="#e9e1e0"></path><path d="M570.7964761508629,22.483280366286635L713.2662066980265,188.61855619354174L770.1982150529511,71.21860741637647Z" fill="#e4d1bf" stroke="#e4d1bf"></path><path d="M770.1982150529511,71.21860741637647L713.2662066980265,188.61855619354174L847.5944538461044,224.9115910497494Z" fill="#dad0d8" stroke="#dad0d8"></path><path d="M770.1982150529511,71.21860741637647L847.5944538461044,224.9115910497494L866.2037980440073,67.08985013421625Z" fill="#d5c4c2" stroke="#d5c4c2"></path><path d="M866.2037980440073,67.08985013421625L847.5944538461044,224.9115910497494L1047.3926785751246,240.61315137892962Z" fill="#cbc2d7" stroke="#cbc2d7"></path><path d="M866.2037980440073,67.08985013421625L1047.3926785751246,240.61315137892962L1071.8987864651717,27.904021537397057Z" fill="#c4b0b5" stroke="#c4b0b5"></path><path d="M1071.8987864651717,27.904021537397057L1047.3926785751246,240.61315137892962L1240.5384284211323,264.0475934604183Z" fill="#b7abcb" stroke="#b7abcb"></path><path d="M1071.8987864651717,27.904021537397057L1240.5384284211323,264.0475934604183L1259.4089203630574,18.02008683560416Z" fill="#af98a6" stroke="#af98a6"></path><path d="M1259.4089203630574,18.02008683560416L1240.5384284211323,264.0475934604183L1376.7830867809244,245.30116211390123Z" fill="#a597c0" stroke="#a597c0"></path><path d="M1259.4089203630574,18.02008683560416L1376.7830867809244,245.30116211390123L1377.775801308453,21.112401767168194Z" fill="#a0859a" stroke="#a0859a"></path><path d="M1377.775801308453,21.112401767168194L1376.7830867809244,245.30116211390123L1485.3987535322085,107.27753437124193Z" fill="#9881a3" stroke="#9881a3"></path><path d="M1485.3987535322085,107.27753437124193L1376.7830867809244,245.30116211390123L1545.056603574194,236.73222998157144Z" fill="#9386c0" stroke="#9386c0"></path><path d="M-57.64081547735259,216.8016753718257L-120.11277140118182,368.34080463275313L46.96416770108044,433.8321555266157Z" fill="#deaf8f" stroke="#deaf8f"></path><path d="M-57.64081547735259,216.8016753718257L46.96416770108044,433.8321555266157L124.51354932272807,226.59692663699389Z" fill="#e8c1a2" stroke="#e8c1a2"></path><path d="M124.51354932272807,226.59692663699389L46.96416770108044,433.8321555266157L293.21617992129177,428.52905492996797Z" fill="#dcbdb6" stroke="#dcbdb6"></path><path d="M124.51354932272807,226.59692663699389L293.21617992129177,428.52905492996797L268.8745403243229,197.18567448668182Z" fill="#ead4c9" stroke="#ead4c9"></path><path d="M268.8745403243229,197.18567448668182L293.21617992129177,428.52905492996797L408.75090412795544,232.14697762858123Z" fill="#ebdddc" stroke="#ebdddc"></path><path d="M408.75090412795544,232.14697762858123L293.21617992129177,428.52905492996797L438.7658152845688,396.92152234958485Z" fill="#dfd3e4" stroke="#dfd3e4"></path><path d="M408.75090412795544,232.14697762858123L438.7658152845688,396.92152234958485L598.2907414529473,273.72030527796596Z" fill="#e6e3f4" stroke="#e6e3f4"></path><path d="M598.2907414529473,273.72030527796596L438.7658152845688,396.92152234958485L623.4312569885515,410.80802123760805Z" fill="#d4cded" stroke="#d4cded"></path><path d="M598.2907414529473,273.72030527796596L623.4312569885515,410.80802123760805L760.0149005418643,347.65534308273345Z" fill="#ccc5e8" stroke="#ccc5e8"></path><path d="M598.2907414529473,273.72030527796596L760.0149005418643,347.65534308273345L713.2662066980265,188.61855619354174Z" fill="#d6d1ea" stroke="#d6d1ea"></path><path d="M713.2662066980265,188.61855619354174L760.0149005418643,347.65534308273345L847.5944538461044,224.9115910497494Z" fill="#d0cbe6" stroke="#d0cbe6"></path><path d="M847.5944538461044,224.9115910497494L760.0149005418643,347.65534308273345L924.5370846777223,423.4352385834791Z" fill="#bbb2de" stroke="#bbb2de"></path><path d="M847.5944538461044,224.9115910497494L924.5370846777223,423.4352385834791L1047.3926785751246,240.61315137892962Z" fill="#b8afda" stroke="#b8afda"></path><path d="M1047.3926785751246,240.61315137892962L924.5370846777223,423.4352385834791L1073.789547891356,357.77380828745663Z" fill="#a89dd4" stroke="#a89dd4"></path><path d="M1047.3926785751246,240.61315137892962L1073.789547891356,357.77380828745663L1240.5384284211323,264.0475934604183Z" fill="#a79cd0" stroke="#a79cd0"></path><path d="M1240.5384284211323,264.0475934604183L1073.789547891356,357.77380828745663L1149.2634682217613,438.0058851605281Z" fill="#978acb" stroke="#978acb"></path><path d="M1240.5384284211323,264.0475934604183L1149.2634682217613,438.0058851605281L1362.1815649839118,354.2841789429076Z" fill="#8d7fc5" stroke="#8d7fc5"></path><path d="M1240.5384284211323,264.0475934604183L1362.1815649839118,354.2841789429076L1376.7830867809244,245.30116211390123Z" fill="#9184c5" stroke="#9184c5"></path><path d="M1376.7830867809244,245.30116211390123L1362.1815649839118,354.2841789429076L1545.056603574194,236.73222998157144Z" fill="#887abf" stroke="#887abf"></path><path d="M1545.056603574194,236.73222998157144L1362.1815649839118,354.2841789429076L1531.8006133916788,463.13187814783305Z" fill="#7665b8" stroke="#7665b8"></path><path d="M1545.056603574194,236.73222998157144L1531.8006133916788,463.13187814783305L1560.535414365586,514.085703662131Z" fill="#6554b1" stroke="#6554b1"></path><path d="M-120.11277140118182,368.34080463275313L-78.3560222829692,578.3253702474758L46.96416770108044,433.8321555266157Z" fill="#c89587" stroke="#c89587"></path><path d="M46.96416770108044,433.8321555266157L-78.3560222829692,578.3253702474758L69.29868744919077,550.1248221588321Z" fill="#be8d91" stroke="#be8d91"></path><path d="M46.96416770108044,433.8321555266157L69.29868744919077,550.1248221588321L220.82444128813222,524.6456975699402Z" fill="#c19ba6" stroke="#c19ba6"></path><path d="M46.96416770108044,433.8321555266157L220.82444128813222,524.6456975699402L293.21617992129177,428.52905492996797Z" fill="#c9aab7" stroke="#c9aab7"></path><path d="M293.21617992129177,428.52905492996797L220.82444128813222,524.6456975699402L350.70019548526034,582.8237373242155Z" fill="#c1a9c9" stroke="#c1a9c9"></path><path d="M293.21617992129177,428.52905492996797L350.70019548526034,582.8237373242155L438.7658152845688,396.92152234958485Z" fill="#cab9d9" stroke="#cab9d9"></path><path d="M438.7658152845688,396.92152234958485L350.70019548526034,582.8237373242155L547.2724052728154,556.8401933368295Z" fill="#c2b7e8" stroke="#c2b7e8"></path><path d="M438.7658152845688,396.92152234958485L547.2724052728154,556.8401933368295L623.4312569885515,410.80802123760805Z" fill="#c4bbe9" stroke="#c4bbe9"></path><path d="M623.4312569885515,410.80802123760805L547.2724052728154,556.8401933368295L712.942906646058,570.0574824819341Z" fill="#b0a4e0" stroke="#b0a4e0"></path><path d="M623.4312569885515,410.80802123760805L712.942906646058,570.0574824819341L760.0149005418643,347.65534308273345Z" fill="#b6abe0" stroke="#b6abe0"></path><path d="M760.0149005418643,347.65534308273345L712.942906646058,570.0574824819341L848.9565343898721,503.80103178322315Z" fill="#a89cda" stroke="#a89cda"></path><path d="M760.0149005418643,347.65534308273345L848.9565343898721,503.80103178322315L924.5370846777223,423.4352385834791Z" fill="#aa9ed9" stroke="#aa9ed9"></path><path d="M924.5370846777223,423.4352385834791L848.9565343898721,503.80103178322315L1096.6081844852306,535.9690439119004Z" fill="#9383cf" stroke="#9383cf"></path><path d="M924.5370846777223,423.4352385834791L1096.6081844852306,535.9690439119004L1073.789547891356,357.77380828745663Z" fill="#9485cd" stroke="#9485cd"></path><path d="M1073.789547891356,357.77380828745663L1096.6081844852306,535.9690439119004L1149.2634682217613,438.0058851605281Z" fill="#8c7cc9" stroke="#8c7cc9"></path><path d="M1149.2634682217613,438.0058851605281L1096.6081844852306,535.9690439119004L1240.2802727581002,545.0515480269678Z" fill="#7a68c2" stroke="#7a68c2"></path><path d="M1149.2634682217613,438.0058851605281L1240.2802727581002,545.0515480269678L1362.1815649839118,354.2841789429076Z" fill="#7c6bc0" stroke="#7c6bc0"></path><path d="M1362.1815649839118,354.2841789429076L1240.2802727581002,545.0515480269678L1361.2029312434606,569.6993847214617Z" fill="#6d59ba" stroke="#6d59ba"></path><path d="M1362.1815649839118,354.2841789429076L1361.2029312434606,569.6993847214617L1531.8006133916788,463.13187814783305Z" fill="#6854b6" stroke="#6854b6"></path><path d="M1531.8006133916788,463.13187814783305L1361.2029312434606,569.6993847214617L1560.535414365586,514.085703662131Z" fill="#5841af" stroke="#5841af"></path><path d="M-78.3560222829692,578.3253702474758L-42.21583617385477,693.8509669620544L69.29868744919077,550.1248221588321Z" fill="#ae7886" stroke="#ae7886"></path><path d="M69.29868744919077,550.1248221588321L-42.21583617385477,693.8509669620544L143.1293969298713,768.5681524663232Z" fill="#a37191" stroke="#a37191"></path><path d="M69.29868744919077,550.1248221588321L143.1293969298713,768.5681524663232L239.74117847159505,683.2956776977517Z" fill="#a47ba5" stroke="#a47ba5"></path><path d="M69.29868744919077,550.1248221588321L239.74117847159505,683.2956776977517L220.82444128813222,524.6456975699402Z" fill="#b38fae" stroke="#b38fae"></path><path d="M220.82444128813222,524.6456975699402L239.74117847159505,683.2956776977517L350.70019548526034,582.8237373242155Z" fill="#b295c0" stroke="#b295c0"></path><path d="M350.70019548526034,582.8237373242155L239.74117847159505,683.2956776977517L371.6984548838809,694.255094002001Z" fill="#a78dc7" stroke="#a78dc7"></path><path d="M350.70019548526034,582.8237373242155L371.6984548838809,694.255094002001L547.2724052728154,556.8401933368295Z" fill="#b0a0de" stroke="#b0a0de"></path><path d="M547.2724052728154,556.8401933368295L371.6984548838809,694.255094002001L589.1110451775603,697.1501781814732Z" fill="#a495e0" stroke="#a495e0"></path><path d="M547.2724052728154,556.8401933368295L589.1110451775603,697.1501781814732L712.942906646058,570.0574824819341Z" fill="#a091dc" stroke="#a091dc"></path><path d="M712.942906646058,570.0574824819341L589.1110451775603,697.1501781814732L739.6385810733773,778.0499289697036Z" fill="#8c7ad4" stroke="#8c7ad4"></path><path d="M712.942906646058,570.0574824819341L739.6385810733773,778.0499289697036L838.7569912453182,714.5900648017414Z" fill="#826fcf" stroke="#826fcf"></path><path d="M712.942906646058,570.0574824819341L838.7569912453182,714.5900648017414L848.9565343898721,503.80103178322315Z" fill="#8f7ed2" stroke="#8f7ed2"></path><path d="M848.9565343898721,503.80103178322315L838.7569912453182,714.5900648017414L1096.6081844852306,535.9690439119004Z" fill="#8472cb" stroke="#8472cb"></path><path d="M1096.6081844852306,535.9690439119004L838.7569912453182,714.5900648017414L1094.532578450162,755.6624277192168Z" fill="#6d56c2" stroke="#6d56c2"></path><path d="M1096.6081844852306,535.9690439119004L1094.532578450162,755.6624277192168L1193.7070024921559,656.0157779138535Z" fill="#644dbc" stroke="#644dbc"></path><path d="M1096.6081844852306,535.9690439119004L1193.7070024921559,656.0157779138535L1240.2802727581002,545.0515480269678Z" fill="#6c57bd" stroke="#6c57bd"></path><path d="M1240.2802727581002,545.0515480269678L1193.7070024921559,656.0157779138535L1361.2029312434606,569.6993847214617Z" fill="#614ab8" stroke="#614ab8"></path><path d="M1361.2029312434606,569.6993847214617L1193.7070024921559,656.0157779138535L1409.8849551938474,702.373430323787Z" fill="#5138b1" stroke="#5138b1"></path><path d="M1361.2029312434606,569.6993847214617L1409.8849551938474,702.373430323787L1560.535414365586,514.085703662131Z" fill="#4d34ad" stroke="#4d34ad"></path><path d="M1560.535414365586,514.085703662131L1409.8849551938474,702.373430323787L1470.295583945699,763.3576970826834Z" fill="#3d22a7" stroke="#3d22a7"></path><path d="M143.1293969298713,768.5681524663232L739.6385810733773,778.0499289697036L371.6984548838809,694.255094002001Z" fill="#9782d6" stroke="#9782d6"></path><path d="M143.1293969298713,768.5681524663232L371.6984548838809,694.255094002001L239.74117847159505,683.2956776977517Z" fill="#9c79b6" stroke="#9c79b6"></path><path d="M371.6984548838809,694.255094002001L739.6385810733773,778.0499289697036L589.1110451775603,697.1501781814732Z" fill="#907ed8" stroke="#907ed8"></path><path d="M739.6385810733773,778.0499289697036L1470.295583945699,763.3576970826834L1094.532578450162,755.6624277192168Z" fill="#5237b7" stroke="#5237b7"></path><path d="M739.6385810733773,778.0499289697036L1094.532578450162,755.6624277192168L838.7569912453182,714.5900648017414Z" fill="#6a53c4" stroke="#6a53c4"></path><path d="M1094.532578450162,755.6624277192168L1470.295583945699,763.3576970826834L1409.8849551938474,702.373430323787Z" fill="#3f23ac" stroke="#3f23ac"></path><path d="M1094.532578450162,755.6624277192168L1409.8849551938474,702.373430323787L1193.7070024921559,656.0157779138535Z" fill="#4f35b3" stroke="#4f35b3"></path></g></svg>