<svg width="1366" height="600" xmlns="http://www.w3.org/2000/svg"><g><path d="M-119.44212747039273,-83.16315817646682L-132.32551190303639,388.51141979685053L-111.32219893159345,287.45855908840895Z" fill="#e17f5b" stroke="#e17f5b"></path><path d="M-119.44212747039273,-83.16315817646682L-111.32219893159345,287.45855908840895L-50.95219378126785,56.36346555314958Z" fill="#e4523a" stroke="#e4523a"></path><path d="M-119.44212747039273,-83.16315817646682L-50.95219378126785,56.36346555314958L122.99985324032605,-54.35469976160675Z" fill="#ea2321" stroke="#ea2321"></path><path d="M-119.44212747039273,-83.16315817646682L122.99985324032605,-54.35469976160675L222.63262000167742,-104.33960849419236Z" fill="#f1281c" stroke="#f1281c"></path><path d="M-119.44212747039273,-83.16315817646682L222.63262000167742,-104.33960849419236L355.1067414856516,-113.04894793080166Z" fill="#f83725" stroke="#f83725"></path><path d="M122.99985324032605,-54.35469976160675L-50.95219378126785,56.36346555314958L45.76881156535819,135.31457711244002Z" fill="#ee563d" stroke="#ee563d"></path><path d="M122.99985324032605,-54.35469976160675L45.76881156535819,135.31457711244002L248.98435161216184,86.66628961451352Z" fill="#f7704b" stroke="#f7704b"></path><path d="M122.99985324032605,-54.35469976160675L248.98435161216184,86.66628961451352L222.63262000167742,-104.33960849419236Z" fill="#fb503a" stroke="#fb503a"></path><path d="M222.63262000167742,-104.33960849419236L248.98435161216184,86.66628961451352L355.1067414856516,-113.04894793080166Z" fill="#fe543d" stroke="#fe543d"></path><path d="M355.1067414856516,-113.04894793080166L248.98435161216184,86.66628961451352L400.88781671365723,52.43684388929978Z" fill="#fe7c53" stroke="#fe7c53"></path><path d="M355.1067414856516,-113.04894793080166L400.88781671365723,52.43684388929978L502.659186294768,-66.03400642983615Z" fill="#ff6f4e" stroke="#ff6f4e"></path><path d="M355.1067414856516,-113.04894793080166L502.659186294768,-66.03400642983615L711.7246610741131,-90.8864572364837Z" fill="#fa7358" stroke="#fa7358"></path><path d="M355.1067414856516,-113.04894793080166L711.7246610741131,-90.8864572364837L1341.3867729948834,-116.20899728266522Z" fill="#db6c75" stroke="#db6c75"></path><path d="M355.1067414856516,-113.04894793080166L1341.3867729948834,-116.20899728266522L1578.355505936779,-144.76047576405108Z" fill="#aa425e" stroke="#aa425e"></path><path d="M502.659186294768,-66.03400642983615L400.88781671365723,52.43684388929978L508.6587900016457,116.72787379007787Z" fill="#fea06d" stroke="#fea06d"></path><path d="M502.659186294768,-66.03400642983615L508.6587900016457,116.72787379007787L711.7246610741131,-90.8864572364837Z" fill="#f78a76" stroke="#f78a76"></path><path d="M711.7246610741131,-90.8864572364837L508.6587900016457,116.72787379007787L778.8794595655054,114.81066985987127Z" fill="#f1b09d" stroke="#f1b09d"></path><path d="M711.7246610741131,-90.8864572364837L778.8794595655054,114.81066985987127L835.4808425344527,-54.841734864749014Z" fill="#e0868a" stroke="#e0868a"></path><path d="M711.7246610741131,-90.8864572364837L835.4808425344527,-54.841734864749014L1341.3867729948834,-116.20899728266522Z" fill="#c05769" stroke="#c05769"></path><path d="M835.4808425344527,-54.841734864749014L778.8794595655054,114.81066985987127L888.6656195437536,95.16680018277839Z" fill="#d5a199" stroke="#d5a199"></path><path d="M835.4808425344527,-54.841734864749014L888.6656195437536,95.16680018277839L1009.6253417502157,20.497696611564606Z" fill="#c8888b" stroke="#c8888b"></path><path d="M835.4808425344527,-54.841734864749014L1009.6253417502157,20.497696611564606L1051.4433886506595,-21.58507852582261Z" fill="#bf697b" stroke="#bf697b"></path><path d="M835.4808425344527,-54.841734864749014L1051.4433886506595,-21.58507852582261L1195.9377018571831,-49.6519105322659Z" fill="#b5526e" stroke="#b5526e"></path><path d="M835.4808425344527,-54.841734864749014L1195.9377018571831,-49.6519105322659L1341.3867729948834,-116.20899728266522Z" fill="#a53d5c" stroke="#a53d5c"></path><path d="M1051.4433886506595,-21.58507852582261L1009.6253417502157,20.497696611564606L1225.3714512311853,101.95134541718289Z" fill="#a9717f" stroke="#a9717f"></path><path d="M1051.4433886506595,-21.58507852582261L1225.3714512311853,101.95134541718289L1195.9377018571831,-49.6519105322659Z" fill="#9f5a73" stroke="#9f5a73"></path><path d="M1195.9377018571831,-49.6519105322659L1225.3714512311853,101.95134541718289L1315.6140222982503,109.11763261072338Z" fill="#906478" stroke="#906478"></path><path d="M1195.9377018571831,-49.6519105322659L1315.6140222982503,109.11763261072338L1341.3867729948834,-116.20899728266522Z" fill="#8a355f" stroke="#8a355f"></path><path d="M1341.3867729948834,-116.20899728266522L1315.6140222982503,109.11763261072338L1470.6929130386561,142.05825766315684Z" fill="#804a6a" stroke="#804a6a"></path><path d="M1341.3867729948834,-116.20899728266522L1470.6929130386561,142.05825766315684L1578.355505936779,-144.76047576405108Z" fill="#800c49" stroke="#800c49"></path><path d="M1578.355505936779,-144.76047576405108L1470.6929130386561,142.05825766315684L1490.900638778694,380.34698772709817Z" fill="#806078" stroke="#806078"></path><path d="M1578.355505936779,-144.76047576405108L1490.900638778694,380.34698772709817L1546.7907426226884,514.3873312021606Z" fill="#8080a2" stroke="#8080a2"></path><path d="M1578.355505936779,-144.76047576405108L1546.7907426226884,514.3873312021606L1541.068889950402,675.0602875766344Z" fill="#6c79b6" stroke="#6c79b6"></path><path d="M-50.95219378126785,56.36346555314958L-111.32219893159345,287.45855908840895L45.76881156535819,135.31457711244002Z" fill="#e87e58" stroke="#e87e58"></path><path d="M45.76881156535819,135.31457711244002L-111.32219893159345,287.45855908840895L35.030196751467884,243.3340617758222Z" fill="#ea9672" stroke="#ea9672"></path><path d="M45.76881156535819,135.31457711244002L35.030196751467884,243.3340617758222L248.98435161216184,86.66628961451352Z" fill="#f49b67" stroke="#f49b67"></path><path d="M248.98435161216184,86.66628961451352L35.030196751467884,243.3340617758222L300.7135151955299,254.06641747336835Z" fill="#fbbd7d" stroke="#fbbd7d"></path><path d="M248.98435161216184,86.66628961451352L300.7135151955299,254.06641747336835L400.88781671365723,52.43684388929978Z" fill="#feb977" stroke="#feb977"></path><path d="M400.88781671365723,52.43684388929978L300.7135151955299,254.06641747336835L453.24298321967945,250.47767679672688Z" fill="#fedd91" stroke="#fedd91"></path><path d="M400.88781671365723,52.43684388929978L453.24298321967945,250.47767679672688L508.6587900016457,116.72787379007787Z" fill="#ffd68a" stroke="#ffd68a"></path><path d="M508.6587900016457,116.72787379007787L453.24298321967945,250.47767679672688L560.1556053129025,228.31977366935462Z" fill="#fbf1aa" stroke="#fbf1aa"></path><path d="M508.6587900016457,116.72787379007787L560.1556053129025,228.31977366935462L778.8794595655054,114.81066985987127Z" fill="#f4e2b3" stroke="#f4e2b3"></path><path d="M778.8794595655054,114.81066985987127L560.1556053129025,228.31977366935462L738.9896161016077,278.3617614931427Z" fill="#eef8d5" stroke="#eef8d5"></path><path d="M778.8794595655054,114.81066985987127L738.9896161016077,278.3617614931427L926.1006791354157,251.44173517124727Z" fill="#d9ead0" stroke="#d9ead0"></path><path d="M778.8794595655054,114.81066985987127L926.1006791354157,251.44173517124727L888.6656195437536,95.16680018277839Z" fill="#d0d1b8" stroke="#d0d1b8"></path><path d="M888.6656195437536,95.16680018277839L926.1006791354157,251.44173517124727L1104.2547156754881,217.402733117342Z" fill="#bed0ba" stroke="#bed0ba"></path><path d="M888.6656195437536,95.16680018277839L1104.2547156754881,217.402733117342L1009.6253417502157,20.497696611564606Z" fill="#b9aa9f" stroke="#b9aa9f"></path><path d="M1009.6253417502157,20.497696611564606L1104.2547156754881,217.402733117342L1225.3714512311853,101.95134541718289Z" fill="#a69996" stroke="#a69996"></path><path d="M1225.3714512311853,101.95134541718289L1104.2547156754881,217.402733117342L1189.06769170193,267.802762191277Z" fill="#9cb3ac" stroke="#9cb3ac"></path><path d="M1225.3714512311853,101.95134541718289L1189.06769170193,267.802762191277L1315.6140222982503,109.11763261072338Z" fill="#91989a" stroke="#91989a"></path><path d="M1315.6140222982503,109.11763261072338L1189.06769170193,267.802762191277L1374.440610264428,208.52226071059704Z" fill="#889fa1" stroke="#889fa1"></path><path d="M1315.6140222982503,109.11763261072338L1374.440610264428,208.52226071059704L1470.6929130386561,142.05825766315684Z" fill="#807d8b" stroke="#807d8b"></path><path d="M1470.6929130386561,142.05825766315684L1374.440610264428,208.52226071059704L1456.9077169755474,177.81152701936662Z" fill="#80808f" stroke="#80808f"></path><path d="M1470.6929130386561,142.05825766315684L1456.9077169755474,177.81152701936662L1490.900638778694,380.34698772709817Z" fill="#8084a2" stroke="#8084a2"></path><path d="M-111.32219893159345,287.45855908840895L-132.32551190303639,388.51141979685053L35.030196751467884,243.3340617758222Z" fill="#e3898c" stroke="#e3898c"></path><path d="M35.030196751467884,243.3340617758222L-132.32551190303639,388.51141979685053L90.32652287511155,451.0791359632276Z" fill="#d28f93" stroke="#d28f93"></path><path d="M35.030196751467884,243.3340617758222L90.32652287511155,451.0791359632276L223.8474668120034,372.22476354334503Z" fill="#dea8a0" stroke="#dea8a0"></path><path d="M35.030196751467884,243.3340617758222L223.8474668120034,372.22476354334503L300.7135151955299,254.06641747336835Z" fill="#fabea4" stroke="#fabea4"></path><path d="M300.7135151955299,254.06641747336835L223.8474668120034,372.22476354334503L365.4682471277192,404.6010449458845Z" fill="#eccdb5" stroke="#eccdb5"></path><path d="M300.7135151955299,254.06641747336835L365.4682471277192,404.6010449458845L453.24298321967945,250.47767679672688Z" fill="#fde0be" stroke="#fde0be"></path><path d="M453.24298321967945,250.47767679672688L365.4682471277192,404.6010449458845L515.5222539184615,410.6651358329691Z" fill="#e8e6c6" stroke="#e8e6c6"></path><path d="M453.24298321967945,250.47767679672688L515.5222539184615,410.6651358329691L560.1556053129025,228.31977366935462Z" fill="#fbf2d3" stroke="#fbf2d3"></path><path d="M560.1556053129025,228.31977366935462L515.5222539184615,410.6651358329691L720.1349781360477,415.9005665406585Z" fill="#e0efe8" stroke="#e0efe8"></path><path d="M560.1556053129025,228.31977366935462L720.1349781360477,415.9005665406585L738.9896161016077,278.3617614931427Z" fill="#edf8f9" stroke="#edf8f9"></path><path d="M738.9896161016077,278.3617614931427L720.1349781360477,415.9005665406585L868.6743754171766,411.6119915805757Z" fill="#c4e5f6" stroke="#c4e5f6"></path><path d="M738.9896161016077,278.3617614931427L868.6743754171766,411.6119915805757L926.1006791354157,251.44173517124727Z" fill="#cee5f1" stroke="#cee5f1"></path><path d="M926.1006791354157,251.44173517124727L868.6743754171766,411.6119915805757L1049.24661942292,369.0982447308488Z" fill="#b0d3ea" stroke="#b0d3ea"></path><path d="M926.1006791354157,251.44173517124727L1049.24661942292,369.0982447308488L1104.2547156754881,217.402733117342Z" fill="#b5ccdb" stroke="#b5ccdb"></path><path d="M1104.2547156754881,217.402733117342L1049.24661942292,369.0982447308488L1189.06769170193,267.802762191277Z" fill="#a6bed5" stroke="#a6bed5"></path><path d="M1189.06769170193,267.802762191277L1049.24661942292,369.0982447308488L1247.1176066575572,396.89247601199895Z" fill="#8cb0d8" stroke="#8cb0d8"></path><path d="M1189.06769170193,267.802762191277L1247.1176066575572,396.89247601199895L1374.440610264428,208.52226071059704Z" fill="#8ca5cb" stroke="#8ca5cb"></path><path d="M1374.440610264428,208.52226071059704L1247.1176066575572,396.89247601199895L1402.0538928802125,425.7936107250862Z" fill="#6e93c8" stroke="#6e93c8"></path><path d="M1374.440610264428,208.52226071059704L1402.0538928802125,425.7936107250862L1490.900638778694,380.34698772709817Z" fill="#7087c1" stroke="#7087c1"></path><path d="M1374.440610264428,208.52226071059704L1490.900638778694,380.34698772709817L1456.9077169755474,177.81152701936662Z" fill="#8089ad" stroke="#8089ad"></path><path d="M-132.32551190303639,388.51141979685053L-126.49059581104666,752.1034345380031L-16.265206530224532,521.9928998523392Z" fill="#75336a" stroke="#75336a"></path><path d="M-132.32551190303639,388.51141979685053L-16.265206530224532,521.9928998523392L90.32652287511155,451.0791359632276Z" fill="#a86e86" stroke="#a86e86"></path><path d="M90.32652287511155,451.0791359632276L-16.265206530224532,521.9928998523392L45.19501852337271,535.8950478327461Z" fill="#966483" stroke="#966483"></path><path d="M90.32652287511155,451.0791359632276L45.19501852337271,535.8950478327461L213.65025772247463,584.9151883157901Z" fill="#936b87" stroke="#936b87"></path><path d="M90.32652287511155,451.0791359632276L213.65025772247463,584.9151883157901L223.8474668120034,372.22476354334503Z" fill="#b18f99" stroke="#b18f99"></path><path d="M223.8474668120034,372.22476354334503L213.65025772247463,584.9151883157901L365.4682471277192,404.6010449458845Z" fill="#bca8a6" stroke="#bca8a6"></path><path d="M365.4682471277192,404.6010449458845L213.65025772247463,584.9151883157901L414.3634739727713,544.0795955201611Z" fill="#a39aa3" stroke="#a39aa3"></path><path d="M365.4682471277192,404.6010449458845L414.3634739727713,544.0795955201611L515.5222539184615,410.6651358329691Z" fill="#bec6ba" stroke="#bec6ba"></path><path d="M515.5222539184615,410.6651358329691L414.3634739727713,544.0795955201611L602.8979967534542,517.2395109687932Z" fill="#a9bcc2" stroke="#a9bcc2"></path><path d="M515.5222539184615,410.6651358329691L602.8979967534542,517.2395109687932L720.1349781360477,415.9005665406585Z" fill="#b5d3e2" stroke="#b5d3e2"></path><path d="M720.1349781360477,415.9005665406585L602.8979967534542,517.2395109687932L671.3320766016841,573.5836048750207Z" fill="#99bde3" stroke="#99bde3"></path><path d="M720.1349781360477,415.9005665406585L671.3320766016841,573.5836048750207L898.4528339933604,532.4425400514156Z" fill="#88b3e1" stroke="#88b3e1"></path><path d="M720.1349781360477,415.9005665406585L898.4528339933604,532.4425400514156L868.6743754171766,411.6119915805757Z" fill="#95c4e8" stroke="#95c4e8"></path><path d="M868.6743754171766,411.6119915805757L898.4528339933604,532.4425400514156L1049.24661942292,369.0982447308488Z" fill="#8abce3" stroke="#8abce3"></path><path d="M1049.24661942292,369.0982447308488L898.4528339933604,532.4425400514156L1102.297533126548,500.6397828506306Z" fill="#6fa3d7" stroke="#6fa3d7"></path><path d="M1049.24661942292,369.0982447308488L1102.297533126548,500.6397828506306L1247.1176066575572,396.89247601199895Z" fill="#70a4d6" stroke="#70a4d6"></path><path d="M1247.1176066575572,396.89247601199895L1102.297533126548,500.6397828506306L1261.0013115080073,612.4166368762963Z" fill="#3f74c0" stroke="#3f74c0"></path><path d="M1247.1176066575572,396.89247601199895L1261.0013115080073,612.4166368762963L1348.5233194124885,557.0127490838058Z" fill="#295eb5" stroke="#295eb5"></path><path d="M1247.1176066575572,396.89247601199895L1348.5233194124885,557.0127490838058L1402.0538928802125,425.7936107250862Z" fill="#3d73bd" stroke="#3d73bd"></path><path d="M1402.0538928802125,425.7936107250862L1348.5233194124885,557.0127490838058L1546.7907426226884,514.3873312021606Z" fill="#2a51ad" stroke="#2a51ad"></path><path d="M1402.0538928802125,425.7936107250862L1546.7907426226884,514.3873312021606L1490.900638778694,380.34698772709817Z" fill="#4463b4" stroke="#4463b4"></path><path d="M-16.265206530224532,521.9928998523392L-126.49059581104666,752.1034345380031L18.240931669715792,723.5920704877935Z" fill="#68105a" stroke="#68105a"></path><path d="M-16.265206530224532,521.9928998523392L18.240931669715792,723.5920704877935L45.19501852337271,535.8950478327461Z" fill="#6d376e" stroke="#6d376e"></path><path d="M45.19501852337271,535.8950478327461L18.240931669715792,723.5920704877935L213.65025772247463,584.9151883157901Z" fill="#733e72" stroke="#733e72"></path><path d="M213.65025772247463,584.9151883157901L18.240931669715792,723.5920704877935L198.15594379091635,766.5324482298456Z" fill="#773668" stroke="#773668"></path><path d="M213.65025772247463,584.9151883157901L198.15594379091635,766.5324482298456L360.9479127591476,688.1779906968586Z" fill="#7e4c78" stroke="#7e4c78"></path><path d="M213.65025772247463,584.9151883157901L360.9479127591476,688.1779906968586L414.3634739727713,544.0795955201611Z" fill="#7f7090" stroke="#7f7090"></path><path d="M414.3634739727713,544.0795955201611L360.9479127591476,688.1779906968586L544.9977073376067,726.180643630214Z" fill="#7f6f93" stroke="#7f6f93"></path><path d="M414.3634739727713,544.0795955201611L544.9977073376067,726.180643630214L602.8979967534542,517.2395109687932Z" fill="#7b8eb0" stroke="#7b8eb0"></path><path d="M602.8979967534542,517.2395109687932L544.9977073376067,726.180643630214L671.3320766016841,573.5836048750207Z" fill="#758dc1" stroke="#758dc1"></path><path d="M671.3320766016841,573.5836048750207L544.9977073376067,726.180643630214L673.6595739773475,755.0776158599183Z" fill="#7478b7" stroke="#7478b7"></path><path d="M671.3320766016841,573.5836048750207L673.6595739773475,755.0776158599183L898.4528339933604,532.4425400514156Z" fill="#6582cc" stroke="#6582cc"></path><path d="M898.4528339933604,532.4425400514156L673.6595739773475,755.0776158599183L942.6861289981753,762.5363189564086Z" fill="#5568b9" stroke="#5568b9"></path><path d="M898.4528339933604,532.4425400514156L942.6861289981753,762.5363189564086L1052.1841427055188,689.6773565839976Z" fill="#4057b4" stroke="#4057b4"></path><path d="M898.4528339933604,532.4425400514156L1052.1841427055188,689.6773565839976L1102.297533126548,500.6397828506306Z" fill="#3e73c1" stroke="#3e73c1"></path><path d="M1102.297533126548,500.6397828506306L1052.1841427055188,689.6773565839976L1172.0916803646833,722.9609503690153Z" fill="#2848ad" stroke="#2848ad"></path><path d="M1102.297533126548,500.6397828506306L1172.0916803646833,722.9609503690153L1261.0013115080073,612.4166368762963Z" fill="#1c48ac" stroke="#1c48ac"></path><path d="M1261.0013115080073,612.4166368762963L1172.0916803646833,722.9609503690153L1371.0160472174175,779.0997106628492Z" fill="#0d2692" stroke="#0d2692"></path><path d="M1261.0013115080073,612.4166368762963L1371.0160472174175,779.0997106628492L1348.5233194124885,557.0127490838058Z" fill="#031f98" stroke="#031f98"></path><path d="M1348.5233194124885,557.0127490838058L1371.0160472174175,779.0997106628492L1541.068889950402,675.0602875766344Z" fill="#000d8c" stroke="#000d8c"></path><path d="M1348.5233194124885,557.0127490838058L1541.068889950402,675.0602875766344L1546.7907426226884,514.3873312021606Z" fill="#042498" stroke="#042498"></path><path d="M-126.49059581104666,752.1034345380031L198.15594379091635,766.5324482298456L18.240931669715792,723.5920704877935Z" fill="#6e1e51" stroke="#6e1e51"></path><path d="M198.15594379091635,766.5324482298456L1371.0160472174175,779.0997106628492L942.6861289981753,762.5363189564086Z" fill="#5568a8" stroke="#5568a8"></path><path d="M198.15594379091635,766.5324482298456L942.6861289981753,762.5363189564086L673.6595739773475,755.0776158599183Z" fill="#7576a1" stroke="#7576a1"></path><path d="M198.15594379091635,766.5324482298456L673.6595739773475,755.0776158599183L544.9977073376067,726.180643630214Z" fill="#7e7186" stroke="#7e7186"></path><path d="M198.15594379091635,766.5324482298456L544.9977073376067,726.180643630214L360.9479127591476,688.1779906968586Z" fill="#7f607c" stroke="#7f607c"></path><path d="M942.6861289981753,762.5363189564086L1371.0160472174175,779.0997106628492L1172.0916803646833,722.9609503690153Z" fill="#1f3791" stroke="#1f3791"></path><path d="M942.6861289981753,762.5363189564086L1172.0916803646833,722.9609503690153L1052.1841427055188,689.6773565839976Z" fill="#3148a0" stroke="#3148a0"></path></g></svg>