<svg width="1366" height="600" xmlns="http://www.w3.org/2000/svg"><g><path d="M-104.05885445186868,-59.94654160691425L-133.50670746527612,744.6055251709186L-108.82385443663225,197.99496636493132Z" fill="#b6b2c1" stroke="#b6b2c1"></path><path d="M-104.05885445186868,-59.94654160691425L-108.82385443663225,197.99496636493132L-90.89860141742975,93.97997765103355Z" fill="#c1a0d5" stroke="#c1a0d5"></path><path d="M-104.05885445186868,-59.94654160691425L-90.89860141742975,93.97997765103355L43.358045786153525,-18.977350895293057Z" fill="#bd96d4" stroke="#bd96d4"></path><path d="M-104.05885445186868,-59.94654160691425L43.358045786153525,-18.977350895293057L271.2207474000752,-121.74289627932012Z" fill="#be94d7" stroke="#be94d7"></path><path d="M43.358045786153525,-18.977350895293057L-90.89860141742975,93.97997765103355L78.40480386046693,43.10602928744629Z" fill="#c6a4d9" stroke="#c6a4d9"></path><path d="M43.358045786153525,-18.977350895293057L78.40480386046693,43.10602928744629L271.2207474000752,-121.74289627932012Z" fill="#c7a3dc" stroke="#c7a3dc"></path><path d="M271.2207474000752,-121.74289627932012L78.40480386046693,43.10602928744629L241.60340614849702,125.49344081897289Z" fill="#d2b5e3" stroke="#d2b5e3"></path><path d="M271.2207474000752,-121.74289627932012L241.60340614849702,125.49344081897289L359.58051634021103,33.63631430314854Z" fill="#d9bfe7" stroke="#d9bfe7"></path><path d="M271.2207474000752,-121.74289627932012L359.58051634021103,33.63631430314854L352.8404612583108,-78.33755745086819Z" fill="#d4b5e6" stroke="#d4b5e6"></path><path d="M271.2207474000752,-121.74289627932012L352.8404612583108,-78.33755745086819L520.0440096715465,-106.76369215594605Z" fill="#d2b1e7" stroke="#d2b1e7"></path><path d="M271.2207474000752,-121.74289627932012L520.0440096715465,-106.76369215594605L704.8511751857586,-118.44708324642852Z" fill="#d1b4e4" stroke="#d1b4e4"></path><path d="M271.2207474000752,-121.74289627932012L704.8511751857586,-118.44708324642852L836.3450049702078,-118.79154824651778Z" fill="#c3add5" stroke="#c3add5"></path><path d="M352.8404612583108,-78.33755745086819L359.58051634021103,33.63631430314854L520.0440096715465,-106.76369215594605Z" fill="#dbc0eb" stroke="#dbc0eb"></path><path d="M520.0440096715465,-106.76369215594605L359.58051634021103,33.63631430314854L537.11966578383,54.88751316210255Z" fill="#e2cded" stroke="#e2cded"></path><path d="M520.0440096715465,-106.76369215594605L537.11966578383,54.88751316210255L704.8511751857586,-118.44708324642852Z" fill="#ccbbdb" stroke="#ccbbdb"></path><path d="M704.8511751857586,-118.44708324642852L537.11966578383,54.88751316210255L743.4479108499363,51.85252461116761Z" fill="#c9c2d4" stroke="#c9c2d4"></path><path d="M704.8511751857586,-118.44708324642852L743.4479108499363,51.85252461116761L836.3450049702078,-118.79154824651778Z" fill="#b5afc3" stroke="#b5afc3"></path><path d="M836.3450049702078,-118.79154824651778L743.4479108499363,51.85252461116761L838.3010211726651,33.721923602279276Z" fill="#b5b8c0" stroke="#b5b8c0"></path><path d="M836.3450049702078,-118.79154824651778L838.3010211726651,33.721923602279276L1087.6490745856427,-27.331020154524595Z" fill="#a2abaf" stroke="#a2abaf"></path><path d="M836.3450049702078,-118.79154824651778L1087.6490745856427,-27.331020154524595L1238.1812698137946,-72.99447626806796Z" fill="#8d9b9b" stroke="#8d9b9b"></path><path d="M1087.6490745856427,-27.331020154524595L838.3010211726651,33.721923602279276L1051.6353689064272,124.46679300628603Z" fill="#a2b8aa" stroke="#a2b8aa"></path><path d="M1087.6490745856427,-27.331020154524595L1051.6353689064272,124.46679300628603L1236.3789234682918,26.1027907487005Z" fill="#90b098" stroke="#90b098"></path><path d="M1087.6490745856427,-27.331020154524595L1236.3789234682918,26.1027907487005L1238.1812698137946,-72.99447626806796Z" fill="#819d8b" stroke="#819d8b"></path><path d="M1238.1812698137946,-72.99447626806796L1236.3789234682918,26.1027907487005L1327.2830534097739,-49.60303836269304Z" fill="#769780" stroke="#769780"></path><path d="M1238.1812698137946,-72.99447626806796L1327.2830534097739,-49.60303836269304L1583.3276926004328,-30.956122607458383Z" fill="#648c72" stroke="#648c72"></path><path d="M1327.2830534097739,-49.60303836269304L1236.3789234682918,26.1027907487005L1398.2906002528034,100.8831599727273Z" fill="#75a07c" stroke="#75a07c"></path><path d="M1327.2830534097739,-49.60303836269304L1398.2906002528034,100.8831599727273L1583.3276926004328,-30.956122607458383Z" fill="#6a9575" stroke="#6a9575"></path><path d="M1583.3276926004328,-30.956122607458383L1398.2906002528034,100.8831599727273L1572.0305466488935,139.153453737963Z" fill="#719d79" stroke="#719d79"></path><path d="M-90.89860141742975,93.97997765103355L-108.82385443663225,197.99496636493132L41.48034478304908,183.96042365115136Z" fill="#ceb7dc" stroke="#ceb7dc"></path><path d="M-90.89860141742975,93.97997765103355L41.48034478304908,183.96042365115136L78.40480386046693,43.10602928744629Z" fill="#ceb3dd" stroke="#ceb3dd"></path><path d="M78.40480386046693,43.10602928744629L41.48034478304908,183.96042365115136L241.60340614849702,125.49344081897289Z" fill="#d7c2e4" stroke="#d7c2e4"></path><path d="M241.60340614849702,125.49344081897289L41.48034478304908,183.96042365115136L240.53953080438077,185.46327967895195Z" fill="#e1d3e9" stroke="#e1d3e9"></path><path d="M241.60340614849702,125.49344081897289L240.53953080438077,185.46327967895195L420.4850259027444,260.4809672990814Z" fill="#eee7f2" stroke="#eee7f2"></path><path d="M241.60340614849702,125.49344081897289L420.4850259027444,260.4809672990814L359.58051634021103,33.63631430314854Z" fill="#ebe1f1" stroke="#ebe1f1"></path><path d="M359.58051634021103,33.63631430314854L420.4850259027444,260.4809672990814L537.11966578383,54.88751316210255Z" fill="#f0e7f6" stroke="#f0e7f6"></path><path d="M537.11966578383,54.88751316210255L420.4850259027444,260.4809672990814L528.9027153421193,248.0349365551956Z" fill="#f4f6f5" stroke="#f4f6f5"></path><path d="M537.11966578383,54.88751316210255L528.9027153421193,248.0349365551956L743.4479108499363,51.85252461116761Z" fill="#dee0e3" stroke="#dee0e3"></path><path d="M743.4479108499363,51.85252461116761L528.9027153421193,248.0349365551956L760.2110549341887,265.3445338830352Z" fill="#dcebdc" stroke="#dcebdc"></path><path d="M743.4479108499363,51.85252461116761L760.2110549341887,265.3445338830352L838.3010211726651,33.721923602279276Z" fill="#c7d5ca" stroke="#c7d5ca"></path><path d="M838.3010211726651,33.721923602279276L760.2110549341887,265.3445338830352L942.2951910202391,289.1438483353704Z" fill="#c7e2c6" stroke="#c7e2c6"></path><path d="M838.3010211726651,33.721923602279276L942.2951910202391,289.1438483353704L1051.6353689064272,124.46679300628603Z" fill="#b5d2b6" stroke="#b5d2b6"></path><path d="M1051.6353689064272,124.46679300628603L942.2951910202391,289.1438483353704L1021.1683759628795,251.85045943362638Z" fill="#add8aa" stroke="#add8aa"></path><path d="M1051.6353689064272,124.46679300628603L1021.1683759628795,251.85045943362638L1173.052615991328,284.56363829551265Z" fill="#a3d3a0" stroke="#a3d3a0"></path><path d="M1051.6353689064272,124.46679300628603L1173.052615991328,284.56363829551265L1236.3789234682918,26.1027907487005Z" fill="#99c499" stroke="#99c499"></path><path d="M1236.3789234682918,26.1027907487005L1173.052615991328,284.56363829551265L1341.7300355085172,238.50334657821804Z" fill="#90c78e" stroke="#90c78e"></path><path d="M1236.3789234682918,26.1027907487005L1341.7300355085172,238.50334657821804L1398.2906002528034,100.8831599727273Z" fill="#80b580" stroke="#80b580"></path><path d="M1398.2906002528034,100.8831599727273L1341.7300355085172,238.50334657821804L1466.4679800253361,177.19735621474683Z" fill="#7dbb7e" stroke="#7dbb7e"></path><path d="M1398.2906002528034,100.8831599727273L1466.4679800253361,177.19735621474683L1572.0305466488935,139.153453737963Z" fill="#79af7c" stroke="#79af7c"></path><path d="M1572.0305466488935,139.153453737963L1466.4679800253361,177.19735621474683L1495.053213937208,438.4641933138482Z" fill="#72b772" stroke="#72b772"></path><path d="M1572.0305466488935,139.153453737963L1495.053213937208,438.4641933138482L1528.65923312027,580.72846472729Z" fill="#4fad4d" stroke="#4fad4d"></path><path d="M-108.82385443663225,197.99496636493132L-133.50670746527612,744.6055251709186L-56.26097228843719,359.6684185601771Z" fill="#92ab9d" stroke="#92ab9d"></path><path d="M-108.82385443663225,197.99496636493132L-56.26097228843719,359.6684185601771L41.48034478304908,183.96042365115136Z" fill="#c7bed2" stroke="#c7bed2"></path><path d="M41.48034478304908,183.96042365115136L-56.26097228843719,359.6684185601771L62.441238295286894,387.5416054506786Z" fill="#bcc1c4" stroke="#bcc1c4"></path><path d="M41.48034478304908,183.96042365115136L62.441238295286894,387.5416054506786L240.53953080438077,185.46327967895195Z" fill="#d3d0da" stroke="#d3d0da"></path><path d="M240.53953080438077,185.46327967895195L62.441238295286894,387.5416054506786L215.1875035976991,439.6652292669751Z" fill="#c1d1c6" stroke="#c1d1c6"></path><path d="M240.53953080438077,185.46327967895195L215.1875035976991,439.6652292669751L420.4850259027444,260.4809672990814Z" fill="#d5e2d8" stroke="#d5e2d8"></path><path d="M420.4850259027444,260.4809672990814L215.1875035976991,439.6652292669751L458.23199960868806,449.07416629139334Z" fill="#c5e4c5" stroke="#c5e4c5"></path><path d="M420.4850259027444,260.4809672990814L458.23199960868806,449.07416629139334L571.3866000412963,360.16637093154714Z" fill="#cfefcd" stroke="#cfefcd"></path><path d="M420.4850259027444,260.4809672990814L571.3866000412963,360.16637093154714L528.9027153421193,248.0349365551956Z" fill="#ddf2dc" stroke="#ddf2dc"></path><path d="M528.9027153421193,248.0349365551956L571.3866000412963,360.16637093154714L760.2110549341887,265.3445338830352Z" fill="#ceebcc" stroke="#ceebcc"></path><path d="M760.2110549341887,265.3445338830352L571.3866000412963,360.16637093154714L697.0207979273982,384.3535466212779Z" fill="#bbe5b8" stroke="#bbe5b8"></path><path d="M760.2110549341887,265.3445338830352L697.0207979273982,384.3535466212779L844.5842552278191,398.0233079800382Z" fill="#abdea8" stroke="#abdea8"></path><path d="M760.2110549341887,265.3445338830352L844.5842552278191,398.0233079800382L942.2951910202391,289.1438483353704Z" fill="#a9dba6" stroke="#a9dba6"></path><path d="M942.2951910202391,289.1438483353704L844.5842552278191,398.0233079800382L1049.8886526934803,409.3688959022984Z" fill="#90d28c" stroke="#90d28c"></path><path d="M942.2951910202391,289.1438483353704L1049.8886526934803,409.3688959022984L1021.1683759628795,251.85045943362638Z" fill="#94d191" stroke="#94d191"></path><path d="M1021.1683759628795,251.85045943362638L1049.8886526934803,409.3688959022984L1173.052615991328,284.56363829551265Z" fill="#8bcd87" stroke="#8bcd87"></path><path d="M1173.052615991328,284.56363829551265L1049.8886526934803,409.3688959022984L1205.9389790846035,358.3096674038097Z" fill="#7ac775" stroke="#7ac775"></path><path d="M1173.052615991328,284.56363829551265L1205.9389790846035,358.3096674038097L1341.7300355085172,238.50334657821804Z" fill="#7bc477" stroke="#7bc477"></path><path d="M1341.7300355085172,238.50334657821804L1205.9389790846035,358.3096674038097L1338.2151560066268,364.59085846086964Z" fill="#6dc068" stroke="#6dc068"></path><path d="M1341.7300355085172,238.50334657821804L1338.2151560066268,364.59085846086964L1466.4679800253361,177.19735621474683Z" fill="#72be70" stroke="#72be70"></path><path d="M1466.4679800253361,177.19735621474683L1338.2151560066268,364.59085846086964L1495.053213937208,438.4641933138482Z" fill="#5fb75e" stroke="#5fb75e"></path><path d="M-56.26097228843719,359.6684185601771L-133.50670746527612,744.6055251709186L-17.548889152240008,616.3231444661506Z" fill="#71a578" stroke="#71a578"></path><path d="M-56.26097228843719,359.6684185601771L-17.548889152240008,616.3231444661506L69.46936128428206,557.9700352693908Z" fill="#86b18d" stroke="#86b18d"></path><path d="M-56.26097228843719,359.6684185601771L69.46936128428206,557.9700352693908L62.441238295286894,387.5416054506786Z" fill="#9cb9a3" stroke="#9cb9a3"></path><path d="M62.441238295286894,387.5416054506786L69.46936128428206,557.9700352693908L188.15674418816343,533.331127720885Z" fill="#94bf98" stroke="#94bf98"></path><path d="M62.441238295286894,387.5416054506786L188.15674418816343,533.331127720885L215.1875035976991,439.6652292669751Z" fill="#a2c7a6" stroke="#a2c7a6"></path><path d="M215.1875035976991,439.6652292669751L188.15674418816343,533.331127720885L431.3978066900745,599.79812490521Z" fill="#99d19a" stroke="#99d19a"></path><path d="M215.1875035976991,439.6652292669751L431.3978066900745,599.79812490521L458.23199960868806,449.07416629139334Z" fill="#a7dda6" stroke="#a7dda6"></path><path d="M458.23199960868806,449.07416629139334L431.3978066900745,599.79812490521L592.4607718456537,546.778775320854Z" fill="#a0e29c" stroke="#a0e29c"></path><path d="M458.23199960868806,449.07416629139334L592.4607718456537,546.778775320854L571.3866000412963,360.16637093154714Z" fill="#afe5ac" stroke="#afe5ac"></path><path d="M571.3866000412963,360.16637093154714L592.4607718456537,546.778775320854L664.001264241524,512.5341042247601Z" fill="#a0df9c" stroke="#a0df9c"></path><path d="M571.3866000412963,360.16637093154714L664.001264241524,512.5341042247601L697.0207979273982,384.3535466212779Z" fill="#a9e1a7" stroke="#a9e1a7"></path><path d="M697.0207979273982,384.3535466212779L664.001264241524,512.5341042247601L844.5842552278191,398.0233079800382Z" fill="#9adb97" stroke="#9adb97"></path><path d="M844.5842552278191,398.0233079800382L664.001264241524,512.5341042247601L885.6352764926851,546.6547521669418Z" fill="#84d380" stroke="#84d380"></path><path d="M844.5842552278191,398.0233079800382L885.6352764926851,546.6547521669418L1049.8886526934803,409.3688959022984Z" fill="#7ccd77" stroke="#7ccd77"></path><path d="M1049.8886526934803,409.3688959022984L885.6352764926851,546.6547521669418L1069.200737082865,611.7259720666334Z" fill="#5fc45a" stroke="#5fc45a"></path><path d="M1049.8886526934803,409.3688959022984L1069.200737082865,611.7259720666334L1175.6660758028738,513.114315229468Z" fill="#56bf50" stroke="#56bf50"></path><path d="M1049.8886526934803,409.3688959022984L1175.6660758028738,513.114315229468L1205.9389790846035,358.3096674038097Z" fill="#66c160" stroke="#66c160"></path><path d="M1205.9389790846035,358.3096674038097L1175.6660758028738,513.114315229468L1298.6170305870473,538.5171074746177Z" fill="#50ba49" stroke="#50ba49"></path><path d="M1205.9389790846035,358.3096674038097L1298.6170305870473,538.5171074746177L1338.2151560066268,364.59085846086964Z" fill="#55b94f" stroke="#55b94f"></path><path d="M1338.2151560066268,364.59085846086964L1298.6170305870473,538.5171074746177L1495.053213937208,438.4641933138482Z" fill="#41b23d" stroke="#41b23d"></path><path d="M1495.053213937208,438.4641933138482L1298.6170305870473,538.5171074746177L1528.65923312027,580.72846472729Z" fill="#2da92a" stroke="#2da92a"></path><path d="M-17.548889152240008,616.3231444661506L-133.50670746527612,744.6055251709186L22.24342524074018,678.1501825526357Z" fill="#57a15f" stroke="#57a15f"></path><path d="M-17.548889152240008,616.3231444661506L22.24342524074018,678.1501825526357L69.46936128428206,557.9700352693908Z" fill="#6dad72" stroke="#6dad72"></path><path d="M69.46936128428206,557.9700352693908L22.24342524074018,678.1501825526357L188.15674418816343,533.331127720885Z" fill="#79b77d" stroke="#79b77d"></path><path d="M188.15674418816343,533.331127720885L22.24342524074018,678.1501825526357L290.6863490049727,662.3741531162523Z" fill="#76bd78" stroke="#76bd78"></path><path d="M188.15674418816343,533.331127720885L290.6863490049727,662.3741531162523L431.3978066900745,599.79812490521Z" fill="#88cf87" stroke="#88cf87"></path><path d="M431.3978066900745,599.79812490521L290.6863490049727,662.3741531162523L417.7303059864789,738.6431538988836Z" fill="#7cd379" stroke="#7cd379"></path><path d="M431.3978066900745,599.79812490521L417.7303059864789,738.6431538988836L503.3200681954622,728.664114982821Z" fill="#7cda7b" stroke="#7cda7b"></path><path d="M431.3978066900745,599.79812490521L503.3200681954622,728.664114982821L592.4607718456537,546.778775320854Z" fill="#86db81" stroke="#86db81"></path><path d="M592.4607718456537,546.778775320854L503.3200681954622,728.664114982821L673.4086946467869,738.6361144436523Z" fill="#6fd369" stroke="#6fd369"></path><path d="M592.4607718456537,546.778775320854L673.4086946467869,738.6361144436523L664.001264241524,512.5341042247601Z" fill="#7ad576" stroke="#7ad576"></path><path d="M664.001264241524,512.5341042247601L673.4086946467869,738.6361144436523L885.6352764926851,546.6547521669418Z" fill="#6ecf68" stroke="#6ecf68"></path><path d="M885.6352764926851,546.6547521669418L673.4086946467869,738.6361144436523L920.3979266202077,775.5275558726862Z" fill="#4cc349" stroke="#4cc349"></path><path d="M885.6352764926851,546.6547521669418L920.3979266202077,775.5275558726862L1069.200737082865,611.7259720666334Z" fill="#45be3f" stroke="#45be3f"></path><path d="M1069.200737082865,611.7259720666334L920.3979266202077,775.5275558726862L1048.2336361217313,769.074865966104Z" fill="#32b630" stroke="#32b630"></path><path d="M1069.200737082865,611.7259720666334L1048.2336361217313,769.074865966104L1197.445886170026,735.5416657100432Z" fill="#26b123" stroke="#26b123"></path><path d="M1069.200737082865,611.7259720666334L1197.445886170026,735.5416657100432L1175.6660758028738,513.114315229468Z" fill="#33b42c" stroke="#33b42c"></path><path d="M1175.6660758028738,513.114315229468L1197.445886170026,735.5416657100432L1298.6170305870473,538.5171074746177Z" fill="#2fb128" stroke="#2fb128"></path><path d="M1298.6170305870473,538.5171074746177L1197.445886170026,735.5416657100432L1417.1992572769523,727.6080630347133Z" fill="#12a80a" stroke="#12a80a"></path><path d="M1298.6170305870473,538.5171074746177L1417.1992572769523,727.6080630347133L1461.703279754147,694.1990928747691Z" fill="#0aa305" stroke="#0aa305"></path><path d="M1298.6170305870473,538.5171074746177L1461.703279754147,694.1990928747691L1528.65923312027,580.72846472729Z" fill="#17a413" stroke="#17a413"></path><path d="M-133.50670746527612,744.6055251709186L920.3979266202077,775.5275558726862L417.7303059864789,738.6431538988836Z" fill="#77cf79" stroke="#77cf79"></path><path d="M-133.50670746527612,744.6055251709186L417.7303059864789,738.6431538988836L22.24342524074018,678.1501825526357Z" fill="#60af68" stroke="#60af68"></path><path d="M22.24342524074018,678.1501825526357L417.7303059864789,738.6431538988836L290.6863490049727,662.3741531162523Z" fill="#6bc170" stroke="#6bc170"></path><path d="M417.7303059864789,738.6431538988836L920.3979266202077,775.5275558726862L673.4086946467869,738.6361144436523Z" fill="#5fc95e" stroke="#5fc95e"></path><path d="M417.7303059864789,738.6431538988836L673.4086946467869,738.6361144436523L503.3200681954622,728.664114982821Z" fill="#72d371" stroke="#72d371"></path><path d="M1048.2336361217313,769.074865966104L1417.1992572769523,727.6080630347133L1197.445886170026,735.5416657100432Z" fill="#17a813" stroke="#17a813"></path></g></svg>