<svg width="1366" height="643" xmlns="http://www.w3.org/2000/svg"><g><path d="M-98.82958573056385,-46.843783454969525L-64.25502085359767,734.2503724456765L-70.95745591912419,385.8255434106104Z" fill="#e48588" stroke="#e48588"></path><path d="M-98.82958573056385,-46.843783454969525L-70.95745591912419,385.8255434106104L-42.19762852881104,215.48604879761115Z" fill="#e58761" stroke="#e58761"></path><path d="M-98.82958573056385,-46.843783454969525L-42.19762852881104,215.48604879761115L-59.30810320423916,15.705092104617506Z" fill="#e54a36" stroke="#e54a36"></path><path d="M-98.82958573056385,-46.843783454969525L-59.30810320423916,15.705092104617506L36.61485421471298,23.607860482297838Z" fill="#e72a25" stroke="#e72a25"></path><path d="M-98.82958573056385,-46.843783454969525L36.61485421471298,23.607860482297838L126.91618624143302,-122.45176322525367Z" fill="#ed1d1e" stroke="#ed1d1e"></path><path d="M126.91618624143302,-122.45176322525367L36.61485421471298,23.607860482297838L287.19760176027194,89.66841960558668Z" fill="#f9573d" stroke="#f9573d"></path><path d="M126.91618624143302,-122.45176322525367L287.19760176027194,89.66841960558668L257.0002045365982,-136.05872051557526Z" fill="#fe4d35" stroke="#fe4d35"></path><path d="M257.0002045365982,-136.05872051557526L287.19760176027194,89.66841960558668L443.54786141077057,-74.90363387856632Z" fill="#fe674a" stroke="#fe674a"></path><path d="M257.0002045365982,-136.05872051557526L443.54786141077057,-74.90363387856632L679.4282405357808,-61.40468691941351Z" fill="#ff7651" stroke="#ff7651"></path><path d="M257.0002045365982,-136.05872051557526L679.4282405357808,-61.40468691941351L1160.7713866094127,-95.6717968522571Z" fill="#f67c70" stroke="#f67c70"></path><path d="M257.0002045365982,-136.05872051557526L1160.7713866094127,-95.6717968522571L1368.8427444547415,-102.9178441176191Z" fill="#d26671" stroke="#d26671"></path><path d="M257.0002045365982,-136.05872051557526L1368.8427444547415,-102.9178441176191L1471.5869500651024,-101.25518669607118Z" fill="#bd5568" stroke="#bd5568"></path><path d="M443.54786141077057,-74.90363387856632L287.19760176027194,89.66841960558668L429.65198423014954,82.48313223011792Z" fill="#ffa069" stroke="#ffa069"></path><path d="M443.54786141077057,-74.90363387856632L429.65198423014954,82.48313223011792L499.06786121660843,-48.897064006887376Z" fill="#ff8a63" stroke="#ff8a63"></path><path d="M443.54786141077057,-74.90363387856632L499.06786121660843,-48.897064006887376L679.4282405357808,-61.40468691941351Z" fill="#ff7c5d" stroke="#ff7c5d"></path><path d="M499.06786121660843,-48.897064006887376L429.65198423014954,82.48313223011792L561.5151817258447,65.35318274050951Z" fill="#ffa977" stroke="#ffa977"></path><path d="M499.06786121660843,-48.897064006887376L561.5151817258447,65.35318274050951L679.4282405357808,-61.40468691941351Z" fill="#ff9371" stroke="#ff9371"></path><path d="M679.4282405357808,-61.40468691941351L561.5151817258447,65.35318274050951L759.9537778901868,66.89665779704228Z" fill="#f9a88a" stroke="#f9a88a"></path><path d="M679.4282405357808,-61.40468691941351L759.9537778901868,66.89665779704228L847.1347630210221,-34.90461700595915Z" fill="#f1918e" stroke="#f1918e"></path><path d="M679.4282405357808,-61.40468691941351L847.1347630210221,-34.90461700595915L984.3026550253853,-61.645455532707274Z" fill="#e4727e" stroke="#e4727e"></path><path d="M679.4282405357808,-61.40468691941351L984.3026550253853,-61.645455532707274L1160.7713866094127,-95.6717968522571Z" fill="#cf6470" stroke="#cf6470"></path><path d="M847.1347630210221,-34.90461700595915L759.9537778901868,66.89665779704228L920.9165124944411,97.1723278448917Z" fill="#e3a89d" stroke="#e3a89d"></path><path d="M847.1347630210221,-34.90461700595915L920.9165124944411,97.1723278448917L984.3026550253853,-61.645455532707274Z" fill="#d48489" stroke="#d48489"></path><path d="M984.3026550253853,-61.645455532707274L920.9165124944411,97.1723278448917L1004.4359900220297,98.64074232755229Z" fill="#c99894" stroke="#c99894"></path><path d="M984.3026550253853,-61.645455532707274L1004.4359900220297,98.64074232755229L1160.7713866094127,-95.6717968522571Z" fill="#ba6277" stroke="#ba6277"></path><path d="M1160.7713866094127,-95.6717968522571L1004.4359900220297,98.64074232755229L1222.213070311118,138.35565709508955Z" fill="#aa7c85" stroke="#aa7c85"></path><path d="M1160.7713866094127,-95.6717968522571L1222.213070311118,138.35565709508955L1311.5293495776132,70.23980244994164Z" fill="#966278" stroke="#966278"></path><path d="M1160.7713866094127,-95.6717968522571L1311.5293495776132,70.23980244994164L1368.8427444547415,-102.9178441176191Z" fill="#8d2858" stroke="#8d2858"></path><path d="M1368.8427444547415,-102.9178441176191L1311.5293495776132,70.23980244994164L1471.5869500651024,-101.25518669607118Z" fill="#80144d" stroke="#80144d"></path><path d="M1471.5869500651024,-101.25518669607118L1311.5293495776132,70.23980244994164L1512.6261660293676,138.6803091270849Z" fill="#803b63" stroke="#803b63"></path><path d="M-59.30810320423916,15.705092104617506L-42.19762852881104,215.48604879761115L36.61485421471298,23.607860482297838Z" fill="#e96343" stroke="#e96343"></path><path d="M36.61485421471298,23.607860482297838L-42.19762852881104,215.48604879761115L110.74595642276108,185.10295543586835Z" fill="#ef8c5f" stroke="#ef8c5f"></path><path d="M36.61485421471298,23.607860482297838L110.74595642276108,185.10295543586835L287.19760176027194,89.66841960558668Z" fill="#f9925e" stroke="#f9925e"></path><path d="M287.19760176027194,89.66841960558668L110.74595642276108,185.10295543586835L208.1815227586776,293.07298554107547Z" fill="#fec885" stroke="#fec885"></path><path d="M287.19760176027194,89.66841960558668L208.1815227586776,293.07298554107547L400.43259952683,244.78962634922937Z" fill="#fedc99" stroke="#fedc99"></path><path d="M287.19760176027194,89.66841960558668L400.43259952683,244.78962634922937L429.65198423014954,82.48313223011792Z" fill="#ffd78c" stroke="#ffd78c"></path><path d="M429.65198423014954,82.48313223011792L400.43259952683,244.78962634922937L588.7450293730944,186.1966610280797Z" fill="#fff0a4" stroke="#fff0a4"></path><path d="M429.65198423014954,82.48313223011792L588.7450293730944,186.1966610280797L561.5151817258447,65.35318274050951Z" fill="#ffd895" stroke="#ffd895"></path><path d="M561.5151817258447,65.35318274050951L588.7450293730944,186.1966610280797L759.9537778901868,66.89665779704228Z" fill="#fbd9a1" stroke="#fbd9a1"></path><path d="M759.9537778901868,66.89665779704228L588.7450293730944,186.1966610280797L769.776317498181,181.6225435398519Z" fill="#f6e9b9" stroke="#f6e9b9"></path><path d="M759.9537778901868,66.89665779704228L769.776317498181,181.6225435398519L920.9165124944411,97.1723278448917Z" fill="#e8d4b7" stroke="#e8d4b7"></path><path d="M920.9165124944411,97.1723278448917L769.776317498181,181.6225435398519L939.8252873821184,248.1587924482301Z" fill="#dce8c8" stroke="#dce8c8"></path><path d="M920.9165124944411,97.1723278448917L939.8252873821184,248.1587924482301L1004.4359900220297,98.64074232755229Z" fill="#ccd1b8" stroke="#ccd1b8"></path><path d="M1004.4359900220297,98.64074232755229L939.8252873821184,248.1587924482301L1049.1297780140303,279.5568974898197Z" fill="#c4dbc9" stroke="#c4dbc9"></path><path d="M1004.4359900220297,98.64074232755229L1049.1297780140303,279.5568974898197L1222.213070311118,138.35565709508955Z" fill="#b2c4b4" stroke="#b2c4b4"></path><path d="M1222.213070311118,138.35565709508955L1049.1297780140303,279.5568974898197L1224.106860049069,303.92263603163883Z" fill="#a3bbc2" stroke="#a3bbc2"></path><path d="M1222.213070311118,138.35565709508955L1224.106860049069,303.92263603163883L1361.4220307348296,228.87000490212813Z" fill="#8fa8b2" stroke="#8fa8b2"></path><path d="M1222.213070311118,138.35565709508955L1361.4220307348296,228.87000490212813L1311.5293495776132,70.23980244994164Z" fill="#899096" stroke="#899096"></path><path d="M1311.5293495776132,70.23980244994164L1361.4220307348296,228.87000490212813L1476.0367947793566,180.52502157865092Z" fill="#808793" stroke="#808793"></path><path d="M1311.5293495776132,70.23980244994164L1476.0367947793566,180.52502157865092L1512.6261660293676,138.6803091270849Z" fill="#806f83" stroke="#806f83"></path><path d="M1512.6261660293676,138.6803091270849L1476.0367947793566,180.52502157865092L1462.1052889735438,405.86613330990076Z" fill="#8080a2" stroke="#8080a2"></path><path d="M1512.6261660293676,138.6803091270849L1462.1052889735438,405.86613330990076L1489.8207086301409,534.4891960010864Z" fill="#8080b9" stroke="#8080b9"></path><path d="M1512.6261660293676,138.6803091270849L1489.8207086301409,534.4891960010864L1476.0865481407382,936.0933851357549Z" fill="#314da9" stroke="#314da9"></path><path d="M-42.19762852881104,215.48604879761115L-70.95745591912419,385.8255434106104L38.86189187411219,345.5490069021471Z" fill="#e99289" stroke="#e99289"></path><path d="M-42.19762852881104,215.48604879761115L38.86189187411219,345.5490069021471L110.74595642276108,185.10295543586835Z" fill="#efa082" stroke="#efa082"></path><path d="M110.74595642276108,185.10295543586835L38.86189187411219,345.5490069021471L208.1815227586776,293.07298554107547Z" fill="#f7b495" stroke="#f7b495"></path><path d="M208.1815227586776,293.07298554107547L38.86189187411219,345.5490069021471L247.48928169021383,345.7462784857489Z" fill="#fbbfa2" stroke="#fbbfa2"></path><path d="M208.1815227586776,293.07298554107547L247.48928169021383,345.7462784857489L400.43259952683,244.78962634922937Z" fill="#fed9ae" stroke="#fed9ae"></path><path d="M400.43259952683,244.78962634922937L247.48928169021383,345.7462784857489L405.757598222699,422.08278885809705Z" fill="#ffe7be" stroke="#ffe7be"></path><path d="M400.43259952683,244.78962634922937L405.757598222699,422.08278885809705L562.4553627171554,411.944679308217Z" fill="#fff5cf" stroke="#fff5cf"></path><path d="M400.43259952683,244.78962634922937L562.4553627171554,411.944679308217L588.7450293730944,186.1966610280797Z" fill="#fffacb" stroke="#fffacb"></path><path d="M588.7450293730944,186.1966610280797L562.4553627171554,411.944679308217L712.6013754005544,419.7688682167791Z" fill="#fcfee0" stroke="#fcfee0"></path><path d="M588.7450293730944,186.1966610280797L712.6013754005544,419.7688682167791L769.776317498181,181.6225435398519Z" fill="#f7fcdd" stroke="#f7fcdd"></path><path d="M769.776317498181,181.6225435398519L712.6013754005544,419.7688682167791L828.4208716941066,390.2733341092244Z" fill="#f1faf5" stroke="#f1faf5"></path><path d="M769.776317498181,181.6225435398519L828.4208716941066,390.2733341092244L939.8252873821184,248.1587924482301Z" fill="#e3f1e9" stroke="#e3f1e9"></path><path d="M939.8252873821184,248.1587924482301L828.4208716941066,390.2733341092244L997.960072918795,364.35784347588196Z" fill="#d3e6ec" stroke="#d3e6ec"></path><path d="M939.8252873821184,248.1587924482301L997.960072918795,364.35784347588196L1049.1297780140303,279.5568974898197Z" fill="#c4dbe1" stroke="#c4dbe1"></path><path d="M1049.1297780140303,279.5568974898197L997.960072918795,364.35784347588196L1182.2477463050745,346.633177746553Z" fill="#b5ccde" stroke="#b5ccde"></path><path d="M1049.1297780140303,279.5568974898197L1182.2477463050745,346.633177746553L1224.106860049069,303.92263603163883Z" fill="#a6bed3" stroke="#a6bed3"></path><path d="M1224.106860049069,303.92263603163883L1182.2477463050745,346.633177746553L1311.1737258918583,370.85711798863485Z" fill="#95adcf" stroke="#95adcf"></path><path d="M1224.106860049069,303.92263603163883L1311.1737258918583,370.85711798863485L1361.4220307348296,228.87000490212813Z" fill="#89a2c3" stroke="#89a2c3"></path><path d="M1361.4220307348296,228.87000490212813L1311.1737258918583,370.85711798863485L1462.1052889735438,405.86613330990076Z" fill="#8093c1" stroke="#8093c1"></path><path d="M1361.4220307348296,228.87000490212813L1462.1052889735438,405.86613330990076L1476.0367947793566,180.52502157865092Z" fill="#8089b1" stroke="#8089b1"></path><path d="M-70.95745591912419,385.8255434106104L-64.25502085359767,734.2503724456765L-15.342944851145148,614.0092700440437Z" fill="#824573" stroke="#824573"></path><path d="M-70.95745591912419,385.8255434106104L-15.342944851145148,614.0092700440437L55.965890472289175,527.0629972079769Z" fill="#a97087" stroke="#a97087"></path><path d="M-70.95745591912419,385.8255434106104L55.965890472289175,527.0629972079769L38.86189187411219,345.5490069021471Z" fill="#d59294" stroke="#d59294"></path><path d="M38.86189187411219,345.5490069021471L55.965890472289175,527.0629972079769L247.48928169021383,345.7462784857489Z" fill="#e5ada2" stroke="#e5ada2"></path><path d="M247.48928169021383,345.7462784857489L55.965890472289175,527.0629972079769L268.3140573860146,523.8094868906774Z" fill="#d1b5aa" stroke="#d1b5aa"></path><path d="M247.48928169021383,345.7462784857489L268.3140573860146,523.8094868906774L405.757598222699,422.08278885809705Z" fill="#e2d5bc" stroke="#e2d5bc"></path><path d="M405.757598222699,422.08278885809705L268.3140573860146,523.8094868906774L407.66400180989876,580.5825295811519Z" fill="#bdc4b9" stroke="#bdc4b9"></path><path d="M405.757598222699,422.08278885809705L407.66400180989876,580.5825295811519L590.1784808235243,551.007952389773Z" fill="#b9ccc4" stroke="#b9ccc4"></path><path d="M405.757598222699,422.08278885809705L590.1784808235243,551.007952389773L562.4553627171554,411.944679308217Z" fill="#d5ecd7" stroke="#d5ecd7"></path><path d="M562.4553627171554,411.944679308217L590.1784808235243,551.007952389773L712.6013754005544,419.7688682167791Z" fill="#d2f0e4" stroke="#d2f0e4"></path><path d="M712.6013754005544,419.7688682167791L590.1784808235243,551.007952389773L722.1824039518833,537.4271966703236Z" fill="#badae3" stroke="#badae3"></path><path d="M712.6013754005544,419.7688682167791L722.1824039518833,537.4271966703236L828.4208716941066,390.2733341092244Z" fill="#cdeef8" stroke="#cdeef8"></path><path d="M828.4208716941066,390.2733341092244L722.1824039518833,537.4271966703236L896.7243894119747,541.1369062191807Z" fill="#b1d9f3" stroke="#b1d9f3"></path><path d="M828.4208716941066,390.2733341092244L896.7243894119747,541.1369062191807L997.960072918795,364.35784347588196Z" fill="#b9dff2" stroke="#b9dff2"></path><path d="M997.960072918795,364.35784347588196L896.7243894119747,541.1369062191807L982.8583595249802,562.6314473478124Z" fill="#94c5e8" stroke="#94c5e8"></path><path d="M997.960072918795,364.35784347588196L982.8583595249802,562.6314473478124L1165.8474321989343,606.2753148679622Z" fill="#78abda" stroke="#78abda"></path><path d="M997.960072918795,364.35784347588196L1165.8474321989343,606.2753148679622L1182.2477463050745,346.633177746553Z" fill="#8dbadf" stroke="#8dbadf"></path><path d="M1182.2477463050745,346.633177746553L1165.8474321989343,606.2753148679622L1311.1737258918583,370.85711798863485Z" fill="#78a6d5" stroke="#78a6d5"></path><path d="M1311.1737258918583,370.85711798863485L1165.8474321989343,606.2753148679622L1420.9687499678694,545.6693642470054Z" fill="#487dc2" stroke="#487dc2"></path><path d="M1311.1737258918583,370.85711798863485L1420.9687499678694,545.6693642470054L1462.1052889735438,405.86613330990076Z" fill="#5f84c3" stroke="#5f84c3"></path><path d="M1462.1052889735438,405.86613330990076L1420.9687499678694,545.6693642470054L1489.8207086301409,534.4891960010864Z" fill="#4565b5" stroke="#4565b5"></path><path d="M-15.342944851145148,614.0092700440437L-64.25502085359767,734.2503724456765L75.43843685416505,703.7650708225556Z" fill="#6c1d62" stroke="#6c1d62"></path><path d="M-15.342944851145148,614.0092700440437L75.43843685416505,703.7650708225556L55.965890472289175,527.0629972079769Z" fill="#794876" stroke="#794876"></path><path d="M55.965890472289175,527.0629972079769L75.43843685416505,703.7650708225556L268.3140573860146,523.8094868906774Z" fill="#916d89" stroke="#916d89"></path><path d="M268.3140573860146,523.8094868906774L75.43843685416505,703.7650708225556L234.33082269970328,749.3823806405999Z" fill="#7e5880" stroke="#7e5880"></path><path d="M268.3140573860146,523.8094868906774L234.33082269970328,749.3823806405999L407.66400180989876,580.5825295811519Z" fill="#878399" stroke="#878399"></path><path d="M407.66400180989876,580.5825295811519L234.33082269970328,749.3823806405999L408.60033546807244,707.4973941571079Z" fill="#7f6f92" stroke="#7f6f92"></path><path d="M407.66400180989876,580.5825295811519L408.60033546807244,707.4973941571079L525.0443857256323,678.2274467567913Z" fill="#7f88a4" stroke="#7f88a4"></path><path d="M407.66400180989876,580.5825295811519L525.0443857256323,678.2274467567913L590.1784808235243,551.007952389773Z" fill="#8fa6b6" stroke="#8fa6b6"></path><path d="M590.1784808235243,551.007952389773L525.0443857256323,678.2274467567913L760.6807966972701,742.0188239519484Z" fill="#7d91ba" stroke="#7d91ba"></path><path d="M590.1784808235243,551.007952389773L760.6807966972701,742.0188239519484L722.1824039518833,537.4271966703236Z" fill="#83a6ce" stroke="#83a6ce"></path><path d="M722.1824039518833,537.4271966703236L760.6807966972701,742.0188239519484L896.7243894119747,541.1369062191807Z" fill="#7ba3db" stroke="#7ba3db"></path><path d="M896.7243894119747,541.1369062191807L760.6807966972701,742.0188239519484L902.2849338594824,784.1927587171085Z" fill="#6273c4" stroke="#6273c4"></path><path d="M896.7243894119747,541.1369062191807L902.2849338594824,784.1927587171085L982.8583595249802,562.6314473478124Z" fill="#5586cc" stroke="#5586cc"></path><path d="M982.8583595249802,562.6314473478124L902.2849338594824,784.1927587171085L1066.7655251245014,778.1543479440734Z" fill="#475eb6" stroke="#475eb6"></path><path d="M982.8583595249802,562.6314473478124L1066.7655251245014,778.1543479440734L1165.8474321989343,606.2753148679622Z" fill="#3664ba" stroke="#3664ba"></path><path d="M1165.8474321989343,606.2753148679622L1066.7655251245014,778.1543479440734L1225.5930921435356,674.4331769668497Z" fill="#2642aa" stroke="#2642aa"></path><path d="M1165.8474321989343,606.2753148679622L1225.5930921435356,674.4331769668497L1420.9687499678694,545.6693642470054Z" fill="#1c51af" stroke="#1c51af"></path><path d="M1420.9687499678694,545.6693642470054L1225.5930921435356,674.4331769668497L1366.8608495499939,747.893929660786Z" fill="#022e9e" stroke="#022e9e"></path><path d="M1420.9687499678694,545.6693642470054L1366.8608495499939,747.893929660786L1480.5199535563588,689.8531709215604Z" fill="#001b95" stroke="#001b95"></path><path d="M1420.9687499678694,545.6693642470054L1480.5199535563588,689.8531709215604L1489.8207086301409,534.4891960010864Z" fill="#1636a0" stroke="#1636a0"></path><path d="M1489.8207086301409,534.4891960010864L1480.5199535563588,689.8531709215604L1476.0865481407382,936.0933851357549Z" fill="#000082" stroke="#000082"></path><path d="M-64.25502085359767,734.2503724456765L-16.32206941721961,827.900076105725L75.43843685416505,703.7650708225556Z" fill="#6c1853" stroke="#6c1853"></path><path d="M75.43843685416505,703.7650708225556L-16.32206941721961,827.900076105725L75.77576133422554,897.2727208142169Z" fill="#70234d" stroke="#70234d"></path><path d="M75.43843685416505,703.7650708225556L75.77576133422554,897.2727208142169L234.33082269970328,749.3823806405999Z" fill="#78375d" stroke="#78375d"></path><path d="M234.33082269970328,749.3823806405999L75.77576133422554,897.2727208142169L220.45204804977402,927.7617020253092Z" fill="#7d4253" stroke="#7d4253"></path><path d="M234.33082269970328,749.3823806405999L220.45204804977402,927.7617020253092L444.12015800364316,823.2095380546525Z" fill="#7f5d69" stroke="#7f5d69"></path><path d="M234.33082269970328,749.3823806405999L444.12015800364316,823.2095380546525L408.60033546807244,707.4973941571079Z" fill="#7f6a82" stroke="#7f6a82"></path><path d="M408.60033546807244,707.4973941571079L444.12015800364316,823.2095380546525L525.0443857256323,678.2274467567913Z" fill="#7f7694" stroke="#7f7694"></path><path d="M525.0443857256323,678.2274467567913L444.12015800364316,823.2095380546525L495.92840362805873,880.9324929537252Z" fill="#80788b" stroke="#80788b"></path><path d="M525.0443857256323,678.2274467567913L495.92840362805873,880.9324929537252L726.3956991676241,889.0361931920052Z" fill="#808091" stroke="#808091"></path><path d="M525.0443857256323,678.2274467567913L726.3956991676241,889.0361931920052L760.6807966972701,742.0188239519484Z" fill="#797da8" stroke="#797da8"></path><path d="M760.6807966972701,742.0188239519484L726.3956991676241,889.0361931920052L902.2849338594824,784.1927587171085Z" fill="#6d78af" stroke="#6d78af"></path><path d="M902.2849338594824,784.1927587171085L726.3956991676241,889.0361931920052L905.4506162647158,940.9473436628468Z" fill="#63719d" stroke="#63719d"></path><path d="M902.2849338594824,784.1927587171085L905.4506162647158,940.9473436628468L1011.1454458977096,908.5408233338967Z" fill="#506595" stroke="#506595"></path><path d="M902.2849338594824,784.1927587171085L1011.1454458977096,908.5408233338967L1066.7655251245014,778.1543479440734Z" fill="#455c9c" stroke="#455c9c"></path><path d="M1066.7655251245014,778.1543479440734L1011.1454458977096,908.5408233338967L1173.3651472697966,900.0127244368196Z" fill="#344b8b" stroke="#344b8b"></path><path d="M1066.7655251245014,778.1543479440734L1173.3651472697966,900.0127244368196L1225.5930921435356,674.4331769668497Z" fill="#263e95" stroke="#263e95"></path><path d="M1225.5930921435356,674.4331769668497L1173.3651472697966,900.0127244368196L1341.4498269255273,830.815676227212Z" fill="#142c88" stroke="#142c88"></path><path d="M1225.5930921435356,674.4331769668497L1341.4498269255273,830.815676227212L1366.8608495499939,747.893929660786Z" fill="#07208c" stroke="#07208c"></path><path d="M1366.8608495499939,747.893929660786L1341.4498269255273,830.815676227212L1476.0865481407382,936.0933851357549Z" fill="#001071" stroke="#001071"></path><path d="M1366.8608495499939,747.893929660786L1476.0865481407382,936.0933851357549L1480.5199535563588,689.8531709215604Z" fill="#000876" stroke="#000876"></path><path d="M220.45204804977402,927.7617020253092L905.4506162647158,940.9473436628468L495.92840362805873,880.9324929537252Z" fill="#807c76" stroke="#807c76"></path><path d="M220.45204804977402,927.7617020253092L495.92840362805873,880.9324929537252L444.12015800364316,823.2095380546525Z" fill="#7f706c" stroke="#7f706c"></path><path d="M495.92840362805873,880.9324929537252L905.4506162647158,940.9473436628468L726.3956991676241,889.0361931920052Z" fill="#767c91" stroke="#767c91"></path><path d="M905.4506162647158,940.9473436628468L1476.0865481407382,936.0933851357549L1173.3651472697966,900.0127244368196Z" fill="#203873" stroke="#203873"></path><path d="M905.4506162647158,940.9473436628468L1173.3651472697966,900.0127244368196L1011.1454458977096,908.5408233338967Z" fill="#3e5584" stroke="#3e5584"></path><path d="M1173.3651472697966,900.0127244368196L1476.0865481407382,936.0933851357549L1341.4498269255273,830.815676227212Z" fill="#041d6c" stroke="#041d6c"></path></g></svg>